<svg xmlns="http://www.w3.org/2000/svg" xmlns:xlink="http://www.w3.org/1999/xlink" viewBox="0 0 2581.36 2723.46"><defs><style>.cls-1{fill:none;}.cls-2{isolation:isolate;}.cls-3{fill:#bfc8d6;}.cls-13,.cls-16,.cls-25,.cls-3,.cls-37,.cls-38,.cls-39,.cls-48{opacity:0.3;}.cls-13,.cls-16,.cls-18,.cls-3,.cls-30,.cls-31,.cls-32,.cls-34,.cls-35,.cls-37,.cls-38,.cls-39,.cls-4,.cls-48,.cls-5{mix-blend-mode:multiply;}.cls-30,.cls-31,.cls-32,.cls-34,.cls-4,.cls-5{opacity:0.2;}.cls-4{fill:url(#linear-gradient);}.cls-5{fill:url(#linear-gradient-2);}.cls-6{opacity:0.5;mix-blend-mode:soft-light;}.cls-7{fill:#fff;}.cls-8{fill:url(#linear-gradient-3);}.cls-9{fill:url(#linear-gradient-4);}.cls-10{fill:url(#linear-gradient-5);}.cls-11{fill:url(#linear-gradient-6);}.cls-12{fill:url(#linear-gradient-7);}.cls-14{fill:url(#linear-gradient-8);}.cls-15{fill:url(#linear-gradient-9);}.cls-16{fill:url(#linear-gradient-10);}.cls-17{fill:url(#linear-gradient-11);}.cls-18{fill:url(#linear-gradient-12);}.cls-19{fill:url(#linear-gradient-13);}.cls-20{fill:url(#linear-gradient-14);}.cls-21{fill:url(#linear-gradient-15);}.cls-22{fill:url(#linear-gradient-16);}.cls-23{fill:url(#linear-gradient-17);}.cls-24{fill:url(#linear-gradient-18);}.cls-25{mix-blend-mode:color-burn;}.cls-26{fill:url(#linear-gradient-19);}.cls-27{clip-path:url(#clip-path);}.cls-28{opacity:0.7;fill:url(#linear-gradient-20);}.cls-29{fill:url(#linear-gradient-21);}.cls-30{fill:url(#linear-gradient-22);}.cls-31{fill:url(#linear-gradient-23);}.cls-32{fill:url(#linear-gradient-24);}.cls-33{fill:url(#linear-gradient-25);}.cls-34{fill:url(#linear-gradient-26);}.cls-36{fill:url(#linear-gradient-27);}.cls-37{fill:url(#linear-gradient-28);}.cls-38{fill:url(#linear-gradient-29);}.cls-39{fill:url(#linear-gradient-30);}.cls-40{fill:url(#linear-gradient-31);}.cls-41{fill:url(#linear-gradient-32);}.cls-42{fill:url(#linear-gradient-33);}.cls-43{fill:#26264f;}.cls-44{fill:url(#linear-gradient-34);}.cls-45{fill:url(#linear-gradient-35);}.cls-46{fill:url(#linear-gradient-36);}.cls-47{fill:url(#linear-gradient-37);}.cls-48{fill:url(#linear-gradient-38);}.cls-49{fill:url(#linear-gradient-39);}</style><linearGradient id="linear-gradient" x1="73.32" y1="1386.58" x2="1455.61" y2="1386.58" gradientTransform="matrix(-1, 0, 0, 1, 2654.68, 0)" gradientUnits="userSpaceOnUse"><stop offset="0" stop-color="#444b8c"/><stop offset="1" stop-color="#26264f"/></linearGradient><linearGradient id="linear-gradient-2" x1="518.46" y1="1886.72" x2="494.54" y2="2800.52" xlink:href="#linear-gradient"/><linearGradient id="linear-gradient-3" x1="-861.1" y1="830.47" x2="-601.95" y2="830.47" gradientTransform="translate(1268.16 106.78) rotate(0.77)" xlink:href="#linear-gradient"/><linearGradient id="linear-gradient-4" x1="-348.7" y1="830.47" x2="-89.56" y2="830.47" gradientTransform="translate(1268.16 106.78) rotate(0.77)" xlink:href="#linear-gradient"/><linearGradient id="linear-gradient-5" x1="-861.1" y1="812.24" x2="-601.95" y2="812.24" gradientTransform="translate(1268.16 106.78) rotate(0.77)" gradientUnits="userSpaceOnUse"><stop offset="0" stop-color="#aa80f9"/><stop offset="1" stop-color="#6165d7"/></linearGradient><linearGradient id="linear-gradient-6" x1="332.52" y1="1020.74" x2="786.84" y2="788.94" gradientTransform="matrix(-0.84, -0.54, -0.54, 0.84, 1907.38, 328.34)" xlink:href="#linear-gradient-5"/><linearGradient id="linear-gradient-7" x1="-626.48" y1="640.76" x2="-72.74" y2="57.96" gradientTransform="translate(1268.16 106.78) rotate(0.77)" gradientUnits="userSpaceOnUse"><stop offset="0" stop-color="#ffc444"/><stop offset="1" stop-color="#f36f56"/></linearGradient><linearGradient id="linear-gradient-8" x1="-671.4" y1="598.08" x2="-117.65" y2="15.28" xlink:href="#linear-gradient-7"/><linearGradient id="linear-gradient-9" x1="-703.88" y1="102.5" x2="-246.78" y2="102.5" xlink:href="#linear-gradient-5"/><linearGradient id="linear-gradient-10" x1="-641.72" y1="187.07" x2="-434.26" y2="-31.28" xlink:href="#linear-gradient-5"/><linearGradient id="linear-gradient-11" x1="-659.6" y1="412.69" x2="-291.05" y2="412.69" gradientTransform="translate(1200.04 988.38) rotate(90)" gradientUnits="userSpaceOnUse"><stop offset="0" stop-color="#ebeff2"/><stop offset="1" stop-color="#fff"/></linearGradient><linearGradient id="linear-gradient-12" x1="-659.6" y1="418.73" x2="-291.05" y2="418.73" gradientTransform="translate(1268.16 106.78) rotate(0.77)" xlink:href="#linear-gradient-11"/><linearGradient id="linear-gradient-13" x1="-418.05" y1="294.9" x2="-508.63" y2="481.19" xlink:href="#linear-gradient-11"/><linearGradient id="linear-gradient-14" x1="-635.85" y1="646.93" x2="-361.44" y2="246.49" gradientTransform="translate(1200.04 988.38) rotate(90)" xlink:href="#linear-gradient"/><linearGradient id="linear-gradient-15" x1="-485.28" y1="995.32" x2="-473.89" y2="846.63" gradientTransform="translate(1639.5 1432.56) rotate(90)" xlink:href="#linear-gradient-7"/><linearGradient id="linear-gradient-16" x1="-601.63" y1="889.4" x2="-349.02" y2="889.4" xlink:href="#linear-gradient-5"/><linearGradient id="linear-gradient-17" x1="-458.54" y1="884.31" x2="-520.64" y2="1071.18" gradientTransform="translate(1715.11 1510.32) rotate(90)" xlink:href="#linear-gradient-5"/><linearGradient id="linear-gradient-18" x1="-462.56" y1="896.41" x2="-509.75" y2="1038.43" gradientTransform="translate(1715.11 1510.32) rotate(90)" xlink:href="#linear-gradient"/><linearGradient id="linear-gradient-19" x1="-652.91" y1="635.24" x2="-378.5" y2="234.8" gradientTransform="translate(1268.16 106.78) rotate(0.77)" xlink:href="#linear-gradient"/><clipPath id="clip-path"><path class="cls-1" d="M835.56,1009.11s-88.54-18-136,7.39c-36.24,73.84-70.83,445.68-70.83,445.68l106.12,566.61s47.14,34.8,82.55,46.6,931.62,266.53,931.62,266.53,133.81,29.37,200.17-45.89-194.78-555-194.78-555l-516.13-610.26Z"/></clipPath><linearGradient id="linear-gradient-20" x1="2963.97" y1="1852.16" x2="2261.74" y2="2842" gradientTransform="matrix(-1, -0.01, -0.01, 1, 3647, -649.3)" gradientUnits="userSpaceOnUse"><stop offset="0" stop-color="#ff9085"/><stop offset="1" stop-color="#fb6fbb"/></linearGradient><linearGradient id="linear-gradient-21" x1="-884.3" y1="-636.1" x2="-330.28" y2="-636.1" gradientTransform="matrix(-0.79, -0.61, -0.61, 0.79, 1150.23, 494.73)" gradientUnits="userSpaceOnUse"><stop offset="0" stop-color="#e38ddd"/><stop offset="1" stop-color="#9571f6"/></linearGradient><linearGradient id="linear-gradient-22" x1="-884.3" y1="-639.19" x2="-330.28" y2="-639.19" xlink:href="#linear-gradient-21"/><linearGradient id="linear-gradient-23" x1="-727.89" y1="-406.32" x2="-413.19" y2="-406.32" xlink:href="#linear-gradient-21"/><linearGradient id="linear-gradient-24" x1="-802.82" y1="-866.09" x2="-412.41" y2="-866.09" xlink:href="#linear-gradient-21"/><linearGradient id="linear-gradient-25" x1="14.76" y1="465.92" x2="987.56" y2="465.92" gradientTransform="matrix(-0.98, -0.2, -0.2, 0.98, 2612.4, 1.42)" gradientUnits="userSpaceOnUse"><stop offset="0" stop-color="#311944"/><stop offset="1" stop-color="#893976"/></linearGradient><linearGradient id="linear-gradient-26" x1="-1142.57" y1="-638.55" x2="-73.45" y2="-638.55" gradientTransform="matrix(-0.79, -0.61, -0.61, 0.79, 1150.23, 494.73)" xlink:href="#linear-gradient-25"/><linearGradient id="linear-gradient-27" x1="2394.11" y1="1239.75" x2="2707.55" y2="1239.75" gradientTransform="matrix(-0.91, 0.42, 0.42, 0.91, 3330.21, -1340.38)" xlink:href="#linear-gradient-5"/><linearGradient id="linear-gradient-28" x1="2394.11" y1="1250.77" x2="2707.55" y2="1250.77" gradientTransform="matrix(-0.91, 0.42, 0.42, 0.91, 3330.21, -1340.38)" xlink:href="#linear-gradient-5"/><linearGradient id="linear-gradient-29" x1="2482.59" y1="1369.64" x2="2660.64" y2="1369.64" gradientTransform="matrix(-0.91, 0.42, 0.42, 0.91, 3330.21, -1340.38)" xlink:href="#linear-gradient-5"/><linearGradient id="linear-gradient-30" x1="2440.21" y1="1109.52" x2="2661.08" y2="1109.52" gradientTransform="matrix(-0.91, 0.42, 0.42, 0.91, 3330.21, -1340.38)" xlink:href="#linear-gradient-5"/><linearGradient id="linear-gradient-31" x1="589.6" y1="898.04" x2="549.54" y2="954.5" gradientTransform="matrix(-1, 0, 0, 1, 2654.68, 0)" xlink:href="#linear-gradient-7"/><linearGradient id="linear-gradient-32" x1="2410.81" y1="760.44" x2="2378.41" y2="806.1" gradientTransform="matrix(-1, 0, 0, 1, 2654.68, 0)" xlink:href="#linear-gradient-21"/><linearGradient id="linear-gradient-33" x1="1467.41" y1="16.16" x2="1422.48" y2="79.5" gradientTransform="matrix(-0.71, -0.71, -0.71, 0.71, 2273.52, 1033.86)" xlink:href="#linear-gradient-20"/><linearGradient id="linear-gradient-34" x1="1637.67" y1="1925.17" x2="1596.59" y2="2112.72" gradientTransform="matrix(-1, 0, 0, 1, 2654.68, 0)" xlink:href="#linear-gradient-7"/><linearGradient id="linear-gradient-35" x1="2008.9" y1="1909.03" x2="2484.03" y2="2362.73" gradientTransform="matrix(-1, 0, 0, 1, 2654.68, 0)" xlink:href="#linear-gradient-21"/><linearGradient id="linear-gradient-36" x1="5424.96" y1="851.68" x2="5721.35" y2="1224.58" gradientTransform="matrix(-0.97, 0.26, 0.26, 0.97, 5550.85, -804.26)" xlink:href="#linear-gradient-7"/><linearGradient id="linear-gradient-37" x1="5439.15" y1="832.91" x2="5770.07" y2="1249.26" gradientTransform="matrix(-0.97, 0.26, 0.26, 0.97, 5550.85, -804.26)" xlink:href="#linear-gradient-7"/><linearGradient id="linear-gradient-38" x1="1921.88" y1="2041.29" x2="2252.31" y2="2609.1" gradientTransform="matrix(-1, 0, 0, 1, 2654.68, 0)" gradientUnits="userSpaceOnUse"><stop offset="0" stop-color="#e38ddd"/><stop offset="1" stop-color="#9571f6" stop-opacity="0"/></linearGradient><linearGradient id="linear-gradient-39" x1="1904.52" y1="2018.35" x2="2379.65" y2="2472.05" gradientTransform="matrix(-1, 0, 0, 1, 2654.68, 0)" xlink:href="#linear-gradient-21"/></defs><g class="cls-2"><g id="Layer_2" data-name="Layer 2"><g id="Illustration"><path class="cls-3" d="M6.72,1456.08.07,1543.64a25.27,25.27,0,0,0,23.46,27.14l50.94,3.59a394.74,394.74,0,0,0,12.73,69l-45.79,22.12a25.49,25.49,0,0,0-11.93,34l38.14,79.18a25.56,25.56,0,0,0,34.08,11.9l45.7-21.93a404,404,0,0,0,46.15,53.63L165,1864a25.49,25.49,0,0,0,6.71,35.49l73.24,49.94a25.8,25.8,0,0,0,35.77-6.61l28.51-41.43a406.91,406.91,0,0,0,67.67,23.57l-3.82,50.3a25.85,25.85,0,0,0,23.86,27.6l89.3,7.05a25.76,25.76,0,0,0,27.86-23.6l3.83-50.45a410.46,410.46,0,0,0,71.06-13l22.23,45.64a26.38,26.38,0,0,0,34.88,12.19l81.5-38.39a25.6,25.6,0,0,0,12.25-34.45l-22.53-46.07a412.51,412.51,0,0,0,55-46.67L815.36,1844a26.63,26.63,0,0,0,36.61-6.76l51.31-73.9a25.59,25.59,0,0,0-7-36l-43.43-29a399.91,399.91,0,0,0,23.69-67.56l52.8,3.72c14.56,1,27.26-9.73,28.34-24l6.78-89.33a25.94,25.94,0,0,0-24.43-27.65L886.85,1490a396.55,396.55,0,0,0-13.54-69.74l48.07-23.07a25.8,25.8,0,0,0,12.32-34.67l-39.62-80.17c-6.33-12.8-22.09-18-35.21-11.71L810.45,1294a404.72,404.72,0,0,0-47-52.92l30.26-44a25.36,25.36,0,0,0-6.92-35.77L712,1112.16a26.59,26.59,0,0,0-36.36,7.27l-30.17,44a405.61,405.61,0,0,0-67.26-22.12l4-52.76a25.35,25.35,0,0,0-24-27.17l-89.44-5.27a26.29,26.29,0,0,0-27.78,24l-4,52.6a410.41,410.41,0,0,0-69.38,13.74l-22.93-46.91a25.58,25.58,0,0,0-34.39-11.44l-80,39.38a25.7,25.7,0,0,0-12,34.2L241,1208.45a412,412,0,0,0-53.27,46l-43.18-28.82a25.76,25.76,0,0,0-35.52,7.1l-49.7,73.12A25.28,25.28,0,0,0,66,1341.14l42.61,28.6a400.84,400.84,0,0,0-23.24,66.16L34,1432.44A25.68,25.68,0,0,0,6.72,1456.08Zm733.4,95.72c-10.9,143.6-137.67,251.23-282.37,240.47-143.82-10.7-251-134.47-240.27-276.5S353.05,1266,497,1275.1C641.81,1284.3,751,1408.21,740.12,1551.8Z"/><path class="cls-4" d="M1199.06,1392.42l133,90.68s225.09-100,395.46-153.75c126.41-39.84,659.84,105.58,735.79,116.69,54.51,8,97.3,58.84,117.13,87a43.76,43.76,0,0,0,1-6.56S2575.8,1387.7,2473,1386.31s-269.49-8.34-309.78-50-138.91-75-207-51.4-180.59-77.79-250-33.34-207,129.19-273.66,116.69C1375.26,1357.52,1253.4,1352.91,1199.06,1392.42Z"/><path class="cls-5" d="M1874.4,2386.65q13.92-1.76,27-4.34a418,418,0,0,0,86-25.89,394.6,394.6,0,0,0,97-58.34c.06-.06.12-.06.12-.11,23.94-18.17,46.27-38.18,58.44-59.18.16-.28,2-.45,2-.45v-.05l232.55-238.2s94-281.95-43.44-390.79H2334c-12.22-10.53-49.56,34.12-56.12,41.28-27.28,30.12-44.84,64.87-46.78,105.77-2,42.73,12.83,88.69-5.95,129.37-8.67,18.78-23.17,31-39.67,41.37h-.11c-23.45,14.72-50.79,25.25-70.74,44.09-45.45,42.95-206.87,298-235.87,394.77A106,106,0,0,0,1874.4,2386.65Z"/><g class="cls-6"><path class="cls-7" d="M755,2044.53a230.93,230.93,0,0,0,69.12,33.57l890.21,256c151.58,43.56,289.21-30.23,300.61-168.64l9.11-111.41c8.17-100-51-199.87-141.69-260.43-103.41-17.28-343.4-38.23-449.36,113.57-137,196.31-343.89,10.62-533.42,77.79C836.72,2007.3,789.66,2025.81,755,2044.53Z"/></g><path class="cls-8" d="M620.4,785.38s-170.17,27.54-225.1,249.71c-5.12,20.7,14.3,39.08,34.72,33L560.08,1029a77.24,77.24,0,0,0,47.47-40.69L655.7,887.4Z"/><path class="cls-9" d="M947,789.76s169.38,32.09,218.33,255.65c4.56,20.83-15.34,38.69-35.59,32l-129-42.55a77.2,77.2,0,0,1-46.36-41.94L908.92,890.79Z"/><path class="cls-10" d="M620.65,767.15s-170.18,27.54-225.11,249.71c-5.12,20.7,14.3,39.08,34.72,32.95l130.06-39.07a77.16,77.16,0,0,0,47.47-40.69L656,869.17Z"/><path class="cls-11" d="M947.19,771.53s169.38,32.09,218.34,255.65c4.56,20.83-15.35,38.69-35.6,32l-129-42.54A77.28,77.28,0,0,1,954.6,974.7L909.17,872.57Z"/><path class="cls-12" d="M1059.07,444.53c-22.2-227.46-265.79-350.18-266.1-350-.32-.17-247.11,116-275.39,342.76C491.93,643,601,896.35,622.65,944.14c2.33,5.14,6.51,13,11.86,11.18,104-35.22,201.74-31.36,294.12,4,5.12,2,9.3-5.77,11.7-10.69C963,902.11,1079.23,651.22,1059.07,444.53Z"/><g class="cls-13"><path class="cls-14" d="M823.67,569.55C810.79,442.84,722,418.21,704.18,302.43c-6.51-42.27-4.09-100.23,31.46-174.81-74.81,49.22-198.53,153.06-218.06,309.66C491.93,643,601,896.35,622.65,944.14c2.33,5.14,6.51,13,11.86,11.18C687,937.52,738,929.72,787.44,930.9c-13.56-36.95-18.21-69.72-18.58-97.71C767.37,720.28,835.41,685,823.67,569.55Z"/></g><path class="cls-15" d="M790.67,265.42c79,1.06,166.22,14.76,227.94,47-65.41-123.76-187.24-197-218.29-214.07a15.76,15.76,0,0,0-14.81-.2c-31.5,16.2-155.25,86.19-224,208.14C616.2,277.89,711.66,264.36,790.67,265.42Z"/><path class="cls-16" d="M735.63,127.62l-1,.69-1.79,1.19L731,130.71l-1.73,1.17-1.93,1.31-1.67,1.13-2,1.42L722,136.85l-2.17,1.52-1.55,1.08L716,141.07l-1.48,1.06-2.39,1.72-1.45,1.05-2.46,1.8-1.4,1-2.57,1.91-1.35,1-2.65,2-1.3,1-2.74,2.1-1.25,1-2.81,2.19-1.22,1L688,162.14l-1.17.94-2.94,2.38-1.15.93-3,2.46-1.1.91-3.07,2.57-1.05.89-3.12,2.65-1,.88q-1.59,1.37-3.18,2.76l-1,.84L663,183.21l-.91.82-3.29,3-.89.81-3.32,3-.86.8c-1.11,1-2.23,2.08-3.35,3.14l-.81.77q-1.7,1.6-3.39,3.24l-.78.75L642,202.88l-.73.72c-1.16,1.14-2.31,2.28-3.46,3.44l-.69.7q-1.75,1.77-3.48,3.55L633,212l-3.51,3.65-.6.64L625.35,220l-.56.6q-1.77,1.92-3.54,3.87l-.53.58q-1.79,2-3.56,4l-.47.53c-1.2,1.36-2.39,2.72-3.58,4.1l-.42.48c-1.21,1.4-2.41,2.8-3.6,4.22-.13.14-.25.29-.37.44-1.21,1.44-2.42,2.88-3.62,4.34l-.3.37c-1.22,1.49-2.43,3-3.64,4.49l-.24.3q-1.83,2.29-3.65,4.63l-.18.22c-1.23,1.59-2.46,3.18-3.68,4.79l-.08.12a428.89,428.89,0,0,0-31.77,48.26c34.92-18.16,86.52-30.24,139.84-36.31C700.65,232,708.44,184.67,735.63,127.62Z"/><ellipse class="cls-17" cx="787.36" cy="513.06" rx="165.95" ry="184.27" transform="translate(263.79 1293.47) rotate(-89.23)"/><path class="cls-18" d="M823.67,569.55c-10.51-103.4-71.56-138.83-103.36-211.28C652.47,382,604,441,603.1,510.59c-1.23,91.64,80.27,167,182,168.41a207.75,207.75,0,0,0,24.57-1.14C820.62,647.74,828.27,614.8,823.67,569.55Z"/><ellipse class="cls-19" cx="787.36" cy="513.06" rx="152.12" ry="168.91" transform="translate(263.79 1293.47) rotate(-89.23)"/><ellipse class="cls-20" cx="787.36" cy="513.06" rx="132.51" ry="147.14" transform="translate(263.79 1293.47) rotate(-89.23)"/><ellipse class="cls-21" cx="782" cy="957.85" rx="45.28" ry="153.26" transform="translate(-186.24 1726.94) rotate(-89.23)"/><path class="cls-22" d="M814.58,936.11l-65.77-.88a86,86,0,0,0-80.37,52.58l-12.89,30.6a17.22,17.22,0,0,0,15.64,23.91l218.1,2.92a17.22,17.22,0,0,0,16.28-23.48L893.5,990.82A86,86,0,0,0,814.58,936.11Z"/><ellipse class="cls-23" cx="780.4" cy="1035.04" rx="42.73" ry="126.48" transform="translate(-265.01 1801.5) rotate(-89.23)"/><ellipse class="cls-24" cx="780.4" cy="1035.04" rx="32.47" ry="96.12" transform="translate(-265.01 1801.5) rotate(-89.23)"/><g class="cls-25"><path class="cls-26" d="M823.67,569.55c-8.94-87.94-54.44-126.72-87.4-180.92-55.45,18.36-95.28,66-96,122.46-1,73.17,64.1,133.38,145.35,134.47a163.87,163.87,0,0,0,34.53-3.21C824.62,621.35,826.55,597.86,823.67,569.55Z"/></g><g class="cls-27"><path class="cls-28" d="M1722.26,2436c78.79-40.51,221.94-81.25,212.41-178-29.28-297.39-378.18-194.44-559.62-560.78C1270.91,1486.9,1324.24,1331.41,1192,1228c-102.12-79.88-155.63,3.79-265.5-93.42-82-72.58-128.12-187.47-181.83-153.17-15.37,9.82-24.58,27.88-28.27,35.29-43.74,87.78-2,257.77,5.35,286.24,49.83,194.2,151.61,258.24,177.9,359.79,37.09,143.23-111.47,206.17-141.73,327.08-20.22,80.79-21.79,69.63,24.76,148.47,60.67,102.73,65.25,154,270.69,239.32C1388.71,2516.79,1572.8,2512.79,1722.26,2436Z"/></g><path class="cls-29" d="M1800.54,193.37c-.36.47-.74,1-1.08,1.45a277,277,0,0,0,163.23,439s0,0,0,0a277.22,277.22,0,1,0-162.18-440.48Z"/><path class="cls-30" d="M1800.54,193.37c-.36.47-.74,1-1.08,1.45a204.13,204.13,0,0,0,17.67,20.93c73,76.69,149.14,74.83,200.68,189.34C2061.74,502.7,2127.05,585,2194.2,578a278.88,278.88,0,0,0,85.57-119.5c-41.69,3.4-119.21.72-155.5-58.32-51-83-51.94-138.15-162.48-192.44-71.21-35-99.23-49-108-66.94A277.42,277.42,0,0,0,1800.54,193.37Z"/><path class="cls-31" d="M1745.33,400.42a277,277,0,0,0,217.36,233.41,107,107,0,0,1-19.49-23.46c-51-83-51.94-138.16-162.48-192.45C1767.46,411.41,1755.72,405.65,1745.33,400.42Z"/><path class="cls-32" d="M1985.91,87.82c12.62,19.37,36,39.05,74.59,54.61C2161.39,183.05,2184,270.54,2260.92,316c13,7.65,24.07,10.94,33.54,11.07A277,277,0,0,0,1985.91,87.82Z"/><path class="cls-33" d="M1603.57,28.23C1564,79.49,1624,196.93,1745,325.08c50.36,53.34,111.25,108.51,179.9,161.56,68.15,52.67,136.42,97.39,200.3,132.57,155.15,85.35,284.6,114.2,324.35,62.77,14-18.18,15.58-44.63,6.33-76.93-17.72-61.82-74.93-145-159.6-232.29-.05,2.72-.17,5.47-.35,8.18,70.85,82,103.57,154.4,77.69,187.89-22,28.52-82.08,23.11-159.36-8.75-65.62-26.89-143.66-72.87-221.48-133-93-71.84-166.32-149.06-207-212.81-33.44-52.64-44.65-96.12-26.25-119.94,22.27-28.81,83.27-22.94,161.7,9.71,4.45-1.7,8.85-3.24,13.36-4.66,1.8-.57,3.57-1.11,5.37-1.64C1779.56,7.11,1644.38-24.58,1603.57,28.23Z"/><path class="cls-34" d="M1603.57,28.23C1564,79.49,1624,196.93,1745,325.08c50.36,53.34,111.25,108.51,179.9,161.56,68.15,52.67,136.42,97.39,200.3,132.57,155.15,85.35,284.6,114.2,324.35,62.77,14-18.18,15.58-44.63,6.33-76.93-12.06,20.32-29.87,35.39-55.88,29.25-65.16-15.34-69.56-32.19-123.75.07S2096.47,577.11,2054,523.31,1977.58,419.89,1887.11,392,1702.6,277.41,1712.76,212.91s-18-118.71-54.11-144.41,27.88-60.23,82.87-31.74,109,21.06,139.89,33.42c13.26,5.3,33.94,17.26,53.24,29.19,1.8-.57,3.57-1.11,5.37-1.64C1779.56,7.11,1644.38-24.58,1603.57,28.23Z"/><g class="cls-35"><path class="cls-36" d="M1404.12,930.8c.14.3.29.62.45.91,1.38,2.89,2.81,5.7,4.33,8.45s3.1,5.45,4.77,8.06a156.15,156.15,0,0,0,80.35,63.91q7,2.46,14.23,4.27c2.41.6,4.82,1.13,7.27,1.62a155.72,155.72,0,0,0,97.08-11.6c22.16-10.38,41-24.7,55.26-42.92h0c21.06-27.59,33.74-59.83,34.91-93.88,0-1.43.06-2.87.08-4.31a154.09,154.09,0,0,0-3.34-33c-1-4.89-2.31-9.79-3.84-14.63s-3.31-9.69-5.34-14.46c-.75-1.79-1.55-3.61-2.38-5.37a156.83,156.83,0,0,0-22.38-34.92c-1.34-1.59-2.69-3.15-4.1-4.66a156.8,156.8,0,0,0-270,132.16c.31,1.79.63,3.57,1,5.36a155.21,155.21,0,0,0,6.26,22c1.07,2.92,2.21,5.8,3.44,8.68C1402.8,927.93,1403.45,929.36,1404.12,930.8Z"/><path class="cls-37" d="M1404.12,930.8c.14.3.29.62.45.91,1.38,2.89,2.81,5.7,4.33,8.45s3.12,5.44,4.78,8.05c57.74-18.67,78.09-61,154.76-52.61,55.86,6.09,109.51,0,134.35-26,0-1.43.06-2.87.08-4.31a154.09,154.09,0,0,0-3.34-33c-1-4.89-2.31-9.79-3.84-14.63s-3.31-9.69-5.34-14.46c-.75-1.79-1.55-3.61-2.38-5.37a156.83,156.83,0,0,0-22.38-34.92c-10,26.55-31.63,66-72.25,67.18-61.43,1.9-93.69-16.63-154,30.83-21.71,17.1-36.13,28.38-46.83,34.82a155.64,155.64,0,0,0,6.19,22.06c1.07,2.92,2.21,5.8,3.44,8.68C1402.8,927.93,1403.45,929.36,1404.12,930.8Z"/><path class="cls-38" d="M1494,1012.13a156.7,156.7,0,0,0,173.66-49,60.33,60.33,0,0,1-16.84,3.74c-54.95,4.22-82.95-9.6-138.86,32C1505.27,1003.83,1499.34,1008.25,1494,1012.13Z"/><path class="cls-39" d="M1399,810.23c13-1.34,29-8,46.77-23.41,46.53-40.26,96.41-29,139.16-56,7.21-4.56,11.73-9.28,14.25-14A156.68,156.68,0,0,0,1399,810.23Z"/></g><circle class="cls-40" cx="2090.8" cy="934.3" r="50.66"/><circle class="cls-41" cx="264.67" cy="789.76" r="40.97"/><circle class="cls-42" cx="1216.12" cy="56.83" r="56.83" transform="translate(316.01 876.57) rotate(-45)"/><path class="cls-43" d="M942.09,2163.2l148.84-348.65a30.65,30.65,0,0,0-21-41.82l-272.64-66.21a30.66,30.66,0,0,0-35.61,18.19l-136.89,335.1a30.63,30.63,0,0,0,19.4,40.89l260.7,79.77A30.65,30.65,0,0,0,942.09,2163.2Z"/><path class="cls-7" d="M935.36,2146.43l139-325.66a28.62,28.62,0,0,0-19.57-39.06l-254.66-61.85a28.63,28.63,0,0,0-33.26,17L639,2049.85a28.63,28.63,0,0,0,18.12,38.21l243.51,74.5A28.64,28.64,0,0,0,935.36,2146.43Z"/><path class="cls-44" d="M1021.19,2050.69l4.46-41.08,23.67-45.12a42.82,42.82,0,0,0,4.91-19.92v-44.81l-28.58,66.09s-18.75-17-25.9-20.54-6.25,10.71-.89,16.07-2.68,49.12,2.68,53.59l-1.79,26.79Z"/><path class="cls-45" d="M794.34,1789c-22.23-54.35-69.94-85.6-94.67-101.81-58.54-38.35-96-31.35-230.43-51.8-179.14-27.26-200.58-53.09-260.79-32.16-79.08,27.5-120.39,99.29-139.32,132.19-95.44,165.85,16.14,250.14-12.5,580.52-11.7,134.92-41.7,252.17,30.36,321.52,15.17,14.6,32.15,22.23,66.09,37.51,134.62,60.57,255.32,50.13,328.67,42.87,80.7-8,121.49-12.57,142.89-41.09,34.19-45.54-1-103.44-7.14-203.63-4.41-71.93,12-128.93,44.66-242.92C738.2,1965.19,836.92,1893.14,794.34,1789Z"/><path class="cls-46" d="M494.49,1537.63c8.15-29.05-6.11-56-9.25-61.76-13.16-24.27-16.53-27.59-22.81-31.79l-8.72-5.38s-.51-.21-1-.4c-5.6-2-24.69-2.57-28.55-1.74-12.36,2.63-25.51,53-21.75,124.1-.52,2.71-1,5.45-1.49,8.2q-2.91,16.86-4.68,33c-1.15,10.3-15.75,10.06-26.09,9.4-42-2.68-62.52.9-64.31,7.15-3.34,11.71,46.45,50,107.92,58.63,82.51.61,149.63-8.17,142.42-21.17-3.21-5.76-67.13-22.47-85.11-39-16.46-15.16-15.12-30.81-16.48-42C459.54,1572.26,488.48,1559,494.49,1537.63Z"/><path class="cls-43" d="M479.31,1418.49c-.07,22-10.46,45.58-15.75,49.36a36.77,36.77,0,0,0-8,8.72,11.25,11.25,0,0,0-1.26,2.6c-4.83,13.89,17.26,30.24,13,36.46-3.09,4.51-18.1-1.52-19.88,2.37-1.68,3.67,10.79,11.26,8.88,15.65-1.44,3.32-9.12.29-14,5.36-2.41,2.53-1.7,4.54-4.26,12.27a70.05,70.05,0,0,1-5,11.82c-7.61,12.94-29.19,17.67-33.34,12.49-1.15-1.44-.16-2.65-1.34-7.5a38.9,38.9,0,0,0-4.22-9.68c-4.46-7.41-15.23-12.72-26.11-20.54-20.13-14.5-25.6-26.86-27.24-31-.58-1.49-.95-2.61-1.21-3.42-5.23-16.24-5.26-40.11,2.05-54.78,12.23-24.59,39.83-12.91,62.43-37.27,26.06-28.1,10.54-66.52,24.68-70.76C444.34,1335.93,479.44,1377.73,479.31,1418.49Z"/><path class="cls-47" d="M459.39,1510.45c-5.4-7.42-14.89-.45-14.95,9.15s9.25,19.59,18.28,17.7S466.66,1520.44,459.39,1510.45Z"/><path class="cls-43" d="M455,1494.38l12.53,16.31s13.51,20,21.4,9c6.44-8.94,8.12-8.74,8.51-8.37.07.07.09.18.11.17s-.94-4.45-1.89-8.33a73.59,73.59,0,0,1,10.72,23c2.7,10.15,5.6,21-.13,31.47-.33.6-6.64,11.71-18.42,14.4,0,0-4.64,1.06-24.22-2.38,0,0,21.4-15.53,21.73-19.22.89-10-13-15.45-23.35-36A82.43,82.43,0,0,1,455,1494.38Z"/><path class="cls-48" d="M412.08,2623.18c23.75-47.28-34.43-110.12,3.58-182.2,32.28-61.21,90.92-47.5,117.89-103.6,32.56-67.76-38.26-118.4-35.73-221.49,3-123.24,109.07-246.6,171.48-235.78,40.38,7,45.56,67.23,74,133.18-25.14,55.12-54.51,124.18-81.11,216.92-32.71,114-49.07,171-44.66,242.92,6.14,100.19,41.33,158.09,7.14,203.63-21.4,28.52-62.19,33.1-142.89,41.09-73.35,7.26-194,17.7-328.67-42.87-17-7.67-29.79-13.41-40.2-19.08C323.2,2687.49,393.25,2660.68,412.08,2623.18Z"/><path class="cls-49" d="M1029.22,2042.65l-39.29-17c-22.14,22.64-50.38,44.66-74.13,37.51-35.41-10.66-26.56-75.79-69.66-190.24-48.85-129.66-104.27-163-132.18-175-15.6-6.73-26.36-11.2-39.3-8-59.54,14.55-79.23,169.7-62.52,285.79,9.41,65.41,27.87,193.66,133.07,254.54,14.95,8.65,97.21,56.25,178.63,18.75C993.39,2216.93,1036.36,2134.75,1029.22,2042.65Z"/></g></g></g></svg>