<svg xmlns="http://www.w3.org/2000/svg" xmlns:xlink="http://www.w3.org/1999/xlink" viewBox="0 0 2903.32 2830.2"><defs><style>.cls-1{fill:none;}.cls-2{fill:url(#linear-gradient);}.cls-3{fill:url(#linear-gradient-2);}.cls-4{fill:url(#linear-gradient-3);}.cls-5{isolation:isolate;}.cls-6{fill:#f4f7fa;}.cls-7{clip-path:url(#clip-path);}.cls-8{fill:url(#linear-gradient-4);}.cls-29,.cls-9{opacity:0.5;}.cls-20,.cls-29,.cls-31,.cls-35,.cls-36,.cls-9{mix-blend-mode:soft-light;}.cls-10{fill:#beb8f2;}.cls-11{fill:url(#linear-gradient-5);}.cls-12{clip-path:url(#clip-path-2);}.cls-13{fill:#fcfdfe;}.cls-14{fill:url(#linear-gradient-6);}.cls-15{clip-path:url(#clip-path-3);}.cls-16{fill:url(#linear-gradient-7);}.cls-17{fill:url(#linear-gradient-8);}.cls-18{fill:url(#linear-gradient-9);}.cls-19{fill:url(#linear-gradient-10);}.cls-20,.cls-24,.cls-29,.cls-31,.cls-35,.cls-36{fill:#fff;}.cls-20{opacity:0.9;}.cls-21,.cls-31,.cls-40,.cls-45,.cls-53{opacity:0.3;}.cls-21,.cls-25,.cls-40,.cls-45,.cls-53{mix-blend-mode:multiply;}.cls-22{fill:#97a6b7;}.cls-23{fill:url(#linear-gradient-11);}.cls-25{opacity:0.2;}.cls-26{fill:url(#linear-gradient-12);}.cls-27{fill:#d8dee8;}.cls-28{clip-path:url(#clip-path-4);}.cls-30{clip-path:url(#clip-path-5);}.cls-32{clip-path:url(#clip-path-6);}.cls-33{fill:url(#linear-gradient-16);}.cls-34{clip-path:url(#clip-path-7);}.cls-35{opacity:0.74;}.cls-37{fill:url(#linear-gradient-17);}.cls-38{fill:url(#linear-gradient-18);}.cls-39{fill:url(#linear-gradient-19);}.cls-40{fill:url(#linear-gradient-20);}.cls-41{fill:url(#linear-gradient-21);}.cls-42{fill:url(#linear-gradient-22);}.cls-43{fill:url(#linear-gradient-23);}.cls-44{fill:url(#linear-gradient-24);}.cls-45{fill:url(#linear-gradient-25);}.cls-46{fill:url(#linear-gradient-26);}.cls-47{fill:url(#linear-gradient-27);}.cls-48{fill:url(#linear-gradient-28);}.cls-49{fill:url(#linear-gradient-29);}.cls-50{fill:url(#linear-gradient-30);}.cls-51{fill:url(#linear-gradient-31);}.cls-52{fill:url(#linear-gradient-32);}.cls-53{fill:url(#linear-gradient-33);}</style><linearGradient id="linear-gradient" x1="2438.42" y1="1817.23" x2="2421.06" y2="2506.52" gradientUnits="userSpaceOnUse"><stop offset="0" stop-color="#e38ddd"/><stop offset="1" stop-color="#9571f6"/></linearGradient><linearGradient id="linear-gradient-2" x1="2124.13" y1="2416.24" x2="2187.17" y2="2368.12" gradientUnits="userSpaceOnUse"><stop offset="0" stop-color="#aa80f9"/><stop offset="1" stop-color="#6165d7"/></linearGradient><linearGradient id="linear-gradient-3" x1="2179.91" y1="1823.83" x2="2353.12" y2="2634" xlink:href="#linear-gradient-2"/><clipPath id="clip-path" transform="translate(0 86.56)"><path class="cls-1" d="M478.84,624.12C564.22,457.2,691,258.9,803.33,458.27s422.39,9.69,521.42-279.76c96.91-283.24,656.33-274.42,502.87,357.89C1736,914,1357.7,930.89,1168.7,984.83s-149.55,342.92-403.34,290.54c-216.78-44.74-393.79-175.23-508.24-27.33S422.23,734.8,478.84,624.12Z"/></clipPath><linearGradient id="linear-gradient-4" x1="5240.37" y1="1945.65" x2="4494.67" y2="4065" gradientTransform="matrix(-0.19, -0.98, -0.98, 0.19, 4699.22, 5020.55)" xlink:href="#linear-gradient"/><linearGradient id="linear-gradient-5" x1="-2411.42" y1="1966.28" x2="-1625.87" y2="4030.36" gradientTransform="translate(4007.48 3926.04) rotate(107.04)" gradientUnits="userSpaceOnUse"><stop offset="0" stop-color="#ffc444"/><stop offset="1" stop-color="#f36f56"/></linearGradient><clipPath id="clip-path-2" transform="translate(0 86.56)"><path class="cls-1" d="M974.66,859.58l-32.38,278.9s152,135.31,233.2,59.63,237,27.29,326.26,71.67c242.17,120.41,326.28-181.87,649.66-54.21,86,34,238.69,129.93,335.83,78.34,110.68-58.77,58-154.52,144.23-186.34,134.79-49.73,224.63-181.47,151.44-310.17-72.24-127-316.48-104.14-576.84,90.09-200.9,117-243.29,103.31-339.22,49.86-67.18-37.44-224.55-183.45-335.95-108.45s-219.78,123.12-285,51.43C1146.78,771.25,974.66,859.58,974.66,859.58Z"/></clipPath><linearGradient id="linear-gradient-6" x1="2781" y1="1792.73" x2="3838.53" y2="3533.69" gradientTransform="matrix(-0.19, 0.98, -0.98, -0.19, 4801.74, -1891.98)" gradientUnits="userSpaceOnUse"><stop offset="0" stop-color="#ff9085"/><stop offset="1" stop-color="#fb6fbb"/></linearGradient><clipPath id="clip-path-3" transform="translate(0 86.56)"><path class="cls-1" d="M803.33,1226.39c53.65,37.31,155.35,91.64,199.13,5.36,60.88-119.94,272.86-78.55,340.8-27.87,84.09,62.74,282.77,204.54,379.62,20.65,80.63-153.08,103.26-269,303.71-238.78s346.55-58.49,372-251.69c26.83-203.31,310.81-314.9,258.73-497-90.74-317.38-578.28-149.72-772.95,172.08S803.33,1226.39,803.33,1226.39Z"/></clipPath><linearGradient id="linear-gradient-7" x1="477.56" y1="103.53" x2="1037.01" y2="1057.9" gradientUnits="userSpaceOnUse"><stop offset="0" stop-color="#444b8c"/><stop offset="1" stop-color="#26264f"/></linearGradient><linearGradient id="linear-gradient-8" x1="1114.33" y1="789.26" x2="2292.47" y2="4448.75" xlink:href="#linear-gradient-7"/><linearGradient id="linear-gradient-9" x1="374.5" y1="1586.14" x2="2431.14" y2="1586.14" gradientUnits="userSpaceOnUse"><stop offset="0.49" stop-color="#ebeff2"/><stop offset="1" stop-color="#fff"/></linearGradient><linearGradient id="linear-gradient-10" x1="2677.57" y1="1154.72" x2="2446.81" y2="1584.76" xlink:href="#linear-gradient-7"/><linearGradient id="linear-gradient-11" x1="957.59" y1="1617.56" x2="1758.46" y2="1617.56" gradientTransform="translate(232.52 -220.05) rotate(5.28)" xlink:href="#linear-gradient-6"/><linearGradient id="linear-gradient-12" x1="957.59" y1="1621.83" x2="1565.5" y2="1621.83" gradientTransform="translate(232.52 -220.05) rotate(5.28)" xlink:href="#linear-gradient-6"/><clipPath id="clip-path-4" transform="translate(0 86.56)"><path class="cls-2" d="M2256.3,2457.53c-20.22,4.1-69.85-62.2-55.91-116.88,15.34-60.13,93.9-52.58,118.63-118.15,20.19-53.54-24.29-77.41-9.9-150.47,9.76-49.6,43.89-100.88,90.8-127.07,61.33-34.23,102.26-2,142.1-37.86,46.87-42.24,23.65-117.06,41.76-120.53,26.32-5,112.49,145.93,63,218.6-41.57,61.08-142.95,13.86-194.21,82-43.1,57.29,12.61,111.89-35.25,179.47-39.41,55.64-98.64,41.39-133.35,106.26C2260.31,2417.16,2270.86,2454.57,2256.3,2457.53Z"/></clipPath><clipPath id="clip-path-5" transform="translate(0 86.56)"><path class="cls-3" d="M2256.81,2504.67a194.78,194.78,0,0,1-49.63-26.18c-20-14.57-39.07-28.5-46.38-51.89-8.43-27,8.37-35.49-.08-60.23-9.6-28.12-35.07-25.25-45-54.46-6.75-19.84-1-38.66,4.15-55.3,6.13-20,20.07-48.64,29.19-46.79,10.8,2.2-3.71,43.55,20.87,72.07,18.61,21.59,40.24,13.32,58.64,38.54,2.5,3.41,16.39,22.44,13.36,45.17-3.71,27.87-25.94,35.26-31.23,58.35C2206.92,2440.43,2213.09,2465.78,2256.81,2504.67Z"/></clipPath><clipPath id="clip-path-6" transform="translate(0 86.56)"><path class="cls-4" d="M2224.12,1830.07c-12.93,6,9.46,40.68-.19,97.51-15.34,90.35-90.45,112.81-84,183.16,3.45,37.91,19.94,64.08,19.94,64.08,5.42,8.6,9.5,12.62,28.32,38.06,1.74,2.36,18.6,25.19,22.72,31.5,27.88,42.78-28.87,105.47-11.64,166.73,11.9,42.32,43.19,71.07,68.85,89.17-48.14-75.65-47.59-124.16-37-155.08,14.71-42.88,48.1-49.91,65.9-103.89,12.43-37.7.82-48.48,1.12-117.79.47-107.18,28.38-118.8,14.22-177.63C2295.72,1876.83,2240.28,1822.54,2224.12,1830.07Z"/></clipPath><linearGradient id="linear-gradient-16" x1="4805.55" y1="-302.71" x2="4662.88" y2="27.54" gradientTransform="matrix(0.83, 0.84, -0.71, 0.7, -1471.43, -1632.23)" xlink:href="#linear-gradient-2"/><clipPath id="clip-path-7" transform="translate(0 86.56)"><path class="cls-1" d="M2273.5,2508.11c-14.49-7.59-40.86-24-55.74-52.67-26.65-51.34-.48-111.2,34.64-139.74,43.84-35.62,79.17-4.19,120.55-37.74,47-38.1,16.51-90.86,65.37-130.37,33.17-26.82,76.48-26.18,114.78-25.61,45.92.68,116.91,12.66,122.05,33.32,6.09,24.51-90.82,19.24-124.06,89.65-25.17,53.32,12.39,94.48-20.23,149.62-4.43,7.47-29,49.08-77.51,56.78-63.37,10.06-108.45-47.25-147.19-30.47C2290.44,2427.69,2273.64,2447.62,2273.5,2508.11Z"/></clipPath><linearGradient id="linear-gradient-17" x1="791.39" y1="2356.9" x2="779.31" y2="2595.43" gradientTransform="matrix(1, 0, 0, 1, 0, 0)" xlink:href="#linear-gradient-6"/><linearGradient id="linear-gradient-18" x1="791.39" y1="2356.9" x2="779.31" y2="2595.43" xlink:href="#linear-gradient-2"/><linearGradient id="linear-gradient-19" x1="760.94" y1="2484.33" x2="1466.89" y2="2484.33" xlink:href="#linear-gradient-2"/><linearGradient id="linear-gradient-20" x1="760.94" y1="2485.97" x2="1466.89" y2="2485.97" xlink:href="#linear-gradient-2"/><linearGradient id="linear-gradient-21" x1="960.85" y1="2759.02" x2="824.98" y2="2589.93" gradientUnits="userSpaceOnUse"><stop offset="0" stop-color="#311944"/><stop offset="1" stop-color="#6b3976"/></linearGradient><linearGradient id="linear-gradient-22" x1="877.43" y1="2718.86" x2="690.23" y2="2483.35" gradientTransform="matrix(1, 0, 0, 1, 0, 0)" xlink:href="#linear-gradient-5"/><linearGradient id="linear-gradient-23" x1="474.4" y1="2476.43" x2="318.86" y2="2799.97" xlink:href="#linear-gradient-2"/><linearGradient id="linear-gradient-24" x1="424.71" y1="2842.09" x2="752.19" y2="2138.01" gradientUnits="userSpaceOnUse"><stop offset="0" stop-color="#f36f56"/><stop offset="1" stop-color="#ffc444"/></linearGradient><linearGradient id="linear-gradient-25" x1="704.02" y1="1903.65" x2="729.6" y2="2317.49" xlink:href="#linear-gradient-24"/><linearGradient id="linear-gradient-26" x1="481.47" y1="2531.47" x2="964.47" y2="2531.47" xlink:href="#linear-gradient-2"/><linearGradient id="linear-gradient-27" x1="223.72" y1="2785.5" x2="560.7" y2="2060.99" xlink:href="#linear-gradient-24"/><linearGradient id="linear-gradient-28" x1="-1723.84" y1="804.72" x2="-1794.29" y2="625.78" gradientTransform="matrix(-0.79, -0.61, -0.61, 0.79, -152.13, 141.63)" xlink:href="#linear-gradient-21"/><linearGradient id="linear-gradient-29" x1="-1745.36" y1="813.3" x2="-1815.89" y2="634.16" gradientTransform="matrix(-0.79, -0.61, -0.61, 0.79, -152.13, 141.63)" xlink:href="#linear-gradient-21"/><linearGradient id="linear-gradient-30" x1="845.16" y1="1811.96" x2="862.63" y2="1811.96" xlink:href="#linear-gradient-24"/><linearGradient id="linear-gradient-31" x1="611.98" y1="2324.42" x2="1213.74" y2="2324.42" xlink:href="#linear-gradient-7"/><linearGradient id="linear-gradient-32" x1="623.33" y1="2330.09" x2="1214.27" y2="2330.09" xlink:href="#linear-gradient-7"/><linearGradient id="linear-gradient-33" x1="623.33" y1="2336.9" x2="1169.59" y2="2336.9" xlink:href="#linear-gradient-7"/></defs><g class="cls-5"><g id="Layer_2" data-name="Layer 2"><g id="Illustration"><g id="Order_canceled" data-name="Order canceled"><path class="cls-6" d="M1414.62,1C712.2-20.33,103.77,503.8,11.84,1191.53-88.67,1943.47,464.51,2620,1145.17,2728.39c846.62,134.79,1667.8-644.95,1594.06-1490.86C2683.68,600.22,2128.64,22.68,1414.62,1Z" transform="translate(0 86.56)"/><g class="cls-7"><path class="cls-8" d="M1324.75,178.51C1225.72,468,949.1,659.14,803.33,482.74,674.5,326.84,564.22,457.2,478.84,624.12,428.26,723,348.17,955.65,112.53,910.44a36.65,36.65,0,0,1-1.32,12C104.85,1073,93,1223.29,85.2,1373.78,151.34,1356,207.75,1311.85,257.12,1248c114.44-147.9,291.46-17.41,508.24,27.33,253.79,52.38,214.33-236.61,403.34-290.54S1736,914,1827.62,536.4C1981.08-95.91,1421.66-104.74,1324.75,178.51Z" transform="translate(0 86.56)"/><g class="cls-9"><path class="cls-10" d="M1659.69-86.56c-.79,618.12-532.59,916.07-978.57,1057.17-204.27,64.63-409.65,103.17-579.2,126.14-.17,2.68-.32,5.36-.49,8,170.2-23,376.61-61.64,581.92-126.59,285.22-90.22,512.59-212.78,675.8-364.28,204.32-189.64,308.1-425.31,308.45-700.47Z" transform="translate(0 86.56)"/><path class="cls-10" d="M1270.35,689.48l-.53-7.89c262.61-17.72,607.94-185.94,611.4-187.64l3.48,7.1C1881.23,502.76,1534.5,671.66,1270.35,689.48Z" transform="translate(0 86.56)"/><path class="cls-10" d="M1403,559.39c112.23-292.88-13.18-521.93-14.46-524.21l6.89-3.87c1.3,2.31,128.55,234.44,15,530.91Z" transform="translate(0 86.56)"/><path class="cls-10" d="M359.18,1053.5C708.41,895.82,701.79,380.6,701.3,375.59l7.8-1.28c.94,4.88,5.66,527.32-346.67,686.4Z" transform="translate(0 86.56)"/><path class="cls-10" d="M514.74,1025.87l.12-7.91c244.48,3.37,455.56,227,457.66,229.26l-5.78,5.39C964.65,1250.37,755.82,1029.19,514.74,1025.87Z" transform="translate(0 86.56)"/><path class="cls-10" d="M218.11,1309c-23.6-21.75-69.33-63.87-123-102.86-.19,3.1-.39,6.21-.58,9.31,51.51,37.9,95.38,78.3,118.25,99.37,10.13,9.33,14.31,13.16,16.2,14.28l4-6.8C231.67,1321.52,225.39,1315.73,218.11,1309Z" transform="translate(0 86.56)"/></g></g><path class="cls-11" d="M1245.94,880.33c-57-62.71-139-56.91-197.65-43.43-2.83,7.64-6.41,11.31-11,18.35-41,63.6-45,99.48-75.59,168.55-6.58,14.86-12.62,64.38-13.79,84.76l-1.58,38s147.9,127.18,229.11,51.5,237,27.29,326.26,71.67c54.81,27.25,88.6,22.16,110.35,28.94,230.2,71.78,271.27,164.85,360.46,142.21,98.47-25,76.6-145.58,182.28-178.44,119.33-37.09,227.32,91.76,332.4,31.42,18-10.34,36.25-21.46,52.93-43.59,41.19-54.61,24.24-118,91.3-142.75,134.79-49.73,224.63-181.47,151.44-310.18-72.24-127-316.48-104.13-576.84,90.1-200.9,117-243.29,103.31-339.22,49.86-67.18-37.44-224.55-183.46-335.95-108.45S1311.11,952,1245.94,880.33Z" transform="translate(0 86.56)"/><g class="cls-12"><g class="cls-9"><path class="cls-13" d="M972.57,985.82l-1.29,5.41c29.82,7.41,60,14.48,89.68,21,219.79,48.41,436.39,72.88,643.78,72.75,175.73-.12,347.31-17.87,510-52.75,130.83-28.06,256.64-67.3,373.93-116.63,82.45-34.69,159.88-74,230.13-116.75,12.24-7.45,24.39-15.8,36.14-23.87,15.66-10.76,31.84-21.88,48.38-31l-2.26-4.93c-16.76,9.21-33.06,20.41-48.82,31.24-11.69,8-23.78,16.34-35.9,23.72-70,42.64-147.22,81.8-229.44,116.39-117,49.22-242.51,88.36-373,116.35-162.35,34.81-333.6,52.52-509,52.64-207,.14-423.29-24.3-642.74-72.64C1032.49,1000.28,1002.35,993.22,972.57,985.82Z" transform="translate(0 86.56)"/><path class="cls-13" d="M2014.54,1060.49l.32,5.53c221.47-21.19,536.16,199,539.31,201.24l2.92-4.67C2553.92,1260.35,2237.78,1039.12,2014.54,1060.49Z" transform="translate(0 86.56)"/><path class="cls-13" d="M1391.64,1061.54l-.28,5.55C1543,1071.57,1745.48,840.3,1747.51,838l-3.73-3.74C1741.76,836.55,1540.87,1066,1391.64,1061.54Z" transform="translate(0 86.56)"/><path class="cls-13" d="M1306,1051l-1.18,5.44c96.45,21.71,215.8,107,336.05,240.23,6,6.7,6,6.7,7,6.93l1.25-5.43-.62,2.72,1.51-2.29c-.45-.39-2.73-2.92-5.38-5.85C1523.71,1158.77,1403.45,1072.92,1306,1051Z" transform="translate(0 86.56)"/><path class="cls-13" d="M1027.2,998.5l.29,5.54c109-10,203.1-154.21,204-155.66l-4.22-3.08C1226.38,846.73,1133.68,988.77,1027.2,998.5Z" transform="translate(0 86.56)"/><path class="cls-13" d="M969.32,993.56c72.66,51.27,133.43,127,185.79,231.66l4.57-2.74c-52.76-105.41-114.07-181.81-187.44-233.59Z" transform="translate(0 86.56)"/><path class="cls-13" d="M2517.41,938.3l.6,5.5c122.71-19.15,255-8.8,298.45-5.4,10.52.82,14.23,1.1,15.54,1l-.39-5.52c-1,.1-7-.37-14.64-1C2773.37,929.45,2640.67,919.07,2517.41,938.3Z" transform="translate(0 86.56)"/><path class="cls-13" d="M2321.39,1001l2.09,5c106-53.45,188.75-288.34,192.23-298.32l-4.84-1.82C2510,708.33,2425.36,948.58,2321.39,1001Z" transform="translate(0 86.56)"/></g></g><path class="cls-14" d="M2657.38,237c-90.75-317.38-578.29-149.72-773,172.08C1828,502.45,1781.2,549.75,1739.35,568.88c-126.5,48.38-214.11,108.09-270.72,153.66-164.22,132.19-194.48,247.51-348.51,332.6-97.3,53.74-193.24,67.39-258,70.69a166.15,166.15,0,0,1-1.14,44.05l-13,81.41c56,35,115.28,57.7,154.48-19.54,60.87-119.94,272.85-78.55,340.79-27.86,84.09,62.73,282.77,204.53,379.62,20.64,80.63-153.08,103.26-269,303.71-238.78s346.55-58.49,372-251.69C2425.47,530.75,2709.45,419.16,2657.38,237Z" transform="translate(0 86.56)"/><g class="cls-15"><g class="cls-9"><path class="cls-13" d="M1830.62,783.75c-154.87,76.73-318,135.25-485,173.18q-16.81,8.82-33.87,17.2c185.3-38.72,366.24-102.64,537-188.73Q1839.65,784.41,1830.62,783.75Z" transform="translate(0 86.56)"/><path class="cls-13" d="M2638.44,105.13c-185.59,255.64-427.07,467-698.8,620.81,1.86,1.89,3.78,3.73,5.61,5.63l1.31,1.34c271.78-154.33,513.32-366,699.1-621.94Z" transform="translate(0 86.56)"/><path class="cls-13" d="M1302.37,978.73c-4.51,2.18-9,4.32-13.57,6.46,247.75,60.44,397.06,324.28,398.57,327l7.87-5C1693.74,1304.52,1547.1,1045.26,1302.37,978.73Z" transform="translate(0 86.56)"/><path class="cls-13" d="M1416.56,446.8c3.22-11.2,4.9-17.68,5-18.23l-8.8-2.44c-.15.57-2,7.68-5.51,19.83C1410.38,446.22,1413.47,446.49,1416.56,446.8Z" transform="translate(0 86.56)"/><path class="cls-13" d="M1955.87,742.73c2.58,2.8,5.42,6,8.37,9.44,192.87-2.61,407,151.27,409.39,153l5.21-8C2376.39,895.41,2154,735.59,1955.87,742.73Z" transform="translate(0 86.56)"/><path class="cls-13" d="M2256.17,510.22l6.66,6.55C2426.93,329.5,2422.15-14,2422.08-17.49l-9.12.29C2413-13.79,2417.72,325.88,2256.17,510.22Z" transform="translate(0 86.56)"/></g></g><path class="cls-16" d="M2478.09,2330.75l-2268,204.73c-33.86,2.76-82.43-42-82.43-76V742.35A58.13,58.13,0,0,1,185,684.23l2287.56-31.64c32.42-.45,93.69,23.45,93.69,55.87l-34.76,1564.35A58.14,58.14,0,0,1,2478.09,2330.75Z" transform="translate(0 86.56)"/><path class="cls-17" d="M2524.17,2346.63,236.61,2533.32a58.13,58.13,0,0,1-62.86-57.94V758.23a58.13,58.13,0,0,1,57.33-58.12l2287.55-31.64a58.13,58.13,0,0,1,58.94,58.12v1562.1A58.14,58.14,0,0,1,2524.17,2346.63Z" transform="translate(0 86.56)"/><path class="cls-18" d="M438.73,2463.63l1937.62-154.29a59.51,59.51,0,0,0,54.79-59.32V768a59.51,59.51,0,0,0-60.42-59.5L433.09,738.21a59.51,59.51,0,0,0-58.59,59.5V2404.32A59.5,59.5,0,0,0,438.73,2463.63Z" transform="translate(0 86.56)"/><path class="cls-19" d="M2512.07,1558.52h0a20.27,20.27,0,0,1-20.27-20.26V1388a20.27,20.27,0,0,1,20.27-20.27h0a20.26,20.26,0,0,1,20.26,20.27v150.22A20.26,20.26,0,0,1,2512.07,1558.52Z" transform="translate(0 86.56)"/><path class="cls-20" d="M2089.06,1979.13c-176.46-153.93-317.93-93.71-504.6-250.11-231.72-194.14-116.34-373.15-320.32-544.1-255.08-213.77-563.3-40.37-754.71-254.49-50.1-56-78-122.77-92.63-189.65a59.5,59.5,0,0,0-42.3,56.93V2404.32a59.5,59.5,0,0,0,64.23,59.31l1855.42-147.74C2260.24,2200.75,2199.81,2075.73,2089.06,1979.13Z" transform="translate(0 86.56)"/><g class="cls-21"><path class="cls-22" d="M2161.1,1492,653.72,1548.75c-25.57,1-46.33-17.54-46.33-41.3V1406.59c0-23.63,20.68-43.37,46.14-44.1l1501.63-43.34a39.91,39.91,0,0,1,41.06,38.39l3.29,93.2A39.92,39.92,0,0,1,2161.1,1492Z" transform="translate(0 86.56)"/><path class="cls-22" d="M714.49,1584.45l136.67,499.74c8.7,31.85,39.43,52.57,74.42,50.26l1015.23-67.13c31.57-2.09,58.37-25.38,65.07-56.45l103.74-481.45Zm387.24,456.68c.22,20.11-16.61,37.52-37.61,38.86l-36.33,2.32c-21.12,1.35-38.41-14-38.58-34.18L986,1657.57c-.16-19.86,16.69-36.66,37.6-37.53l36-1.5c20.8-.87,37.81,14.43,38,34.18ZM1302,2028.68c.3,19.91-16.13,37.13-36.73,38.45l-35.63,2.28c-20.71,1.32-37.75-13.85-38-33.87l-4.94-386.69c-.25-19.67,16.21-36.3,36.72-37.15l35.29-1.48c20.4-.85,37.15,14.31,37.45,33.87Zm196.39-12.21c.38,19.71-15.67,36.76-35.87,38l-35,2.23c-20.32,1.3-37.1-13.73-37.44-33.55l-6.55-382.91c-.33-19.47,15.75-35.93,35.87-36.77l34.62-1.45c20-.83,36.52,14.18,36.9,33.56Zm192.66-12c.47,19.53-15.21,36.4-35,37.66l-34.29,2.2c-19.93,1.27-36.46-13.62-36.88-33.25l-8.1-379.19c-.42-19.29,15.29-35.59,35-36.41l34-1.42c19.64-.82,35.91,14.06,36.36,33.25Zm189.06-11.75c.54,19.33-14.77,36-34.23,37.27l-33.64,2.15a33.78,33.78,0,0,1-36.35-32.94l-9.59-375.55c-.49-19.11,14.86-35.24,34.24-36.05l33.34-1.39a34.09,34.09,0,0,1,35.84,33Z" transform="translate(0 86.56)"/><path class="cls-22" d="M1328.9,868.78c-7.58-8.07-23-6.87-34.37,2.7L819.79,1269.9c-12.17,10.22-15.62,25.23-7.67,33.5s24.24,6.66,36.38-3.57L1322,900.73C1333.4,891.14,1336.47,876.84,1328.9,868.78Z" transform="translate(0 86.56)"/><path class="cls-22" d="M1516.09,866.92c7.22-8.08,22.48-7,34.09,2.47L2011,1244.29c11.28,9.17,14.87,23.23,8,31.41s-21.58,7.39-32.89-1.79L1524.06,898.69C1512.42,889.24,1508.86,875,1516.09,866.92Z" transform="translate(0 86.56)"/></g><path class="cls-23" d="M1836.79,1527.1c-20.4,220.48-215.69,394.65-436.88,389-221.94-5.66-385.78-190.1-365.25-411.94s217.53-396,439.35-388.93C1695.07,1122.24,1857.19,1306.63,1836.79,1527.1Z" transform="translate(0 86.56)"/><path class="cls-24" d="M1440.93,1769c-139.72,0-253.39-113.67-253.39-253.39s113.67-253.39,253.39-253.39,253.4,113.67,253.4,253.39S1580.66,1769,1440.93,1769Zm0-413.58c-88.32,0-160.18,71.86-160.18,160.19s71.86,160.19,160.18,160.19,160.19-71.86,160.19-160.19S1529.26,1355.44,1440.93,1355.44Z" transform="translate(0 86.56)"/><path class="cls-24" d="M1323.73,1690.7a46.61,46.61,0,0,1-33-79.46l253-254.46a46.6,46.6,0,1,1,66.1,65.71l-253,254.46A46.48,46.48,0,0,1,1323.73,1690.7Z" transform="translate(0 86.56)"/><g class="cls-25"><path class="cls-26" d="M1402.62,1809.9c-29.06-51.42,29.74-93.72,32.14-196.27,3.64-155.71-128.34-212.16-110.65-343.51,4.91-36.53,23.06-91.15,91.16-152.51-196.86,22.1-361.92,184.53-380.61,386.55C1014.13,1726,1178,1910.44,1399.91,1916.1c75.66,1.93,148.29-17.19,211.93-52C1529,1869.68,1433.37,1864.32,1402.62,1809.9Z" transform="translate(0 86.56)"/></g><path class="cls-27" d="M2171.44,2422.47c-221.92-2.34-233.5,13.91-235.17,21.38-7.65,34.26,141.2,118.55,299.31,132.55,93.51,8.28,170.66-10.16,325-47,102.89-24.59,154.33-36.89,153.93-51.31C2713.35,2437.26,2336.75,2424.21,2171.44,2422.47Z" transform="translate(0 86.56)"/><path class="cls-2" d="M2256.3,2457.53c-20.22,4.1-69.85-62.2-55.91-116.88,15.34-60.13,93.9-52.58,118.63-118.15,20.19-53.54-24.29-77.41-9.9-150.47,9.76-49.6,43.89-100.88,90.8-127.07,61.33-34.23,102.26-2,142.1-37.86,46.87-42.24,23.65-117.06,41.76-120.53,26.32-5,112.49,145.93,63,218.6-41.57,61.08-142.95,13.86-194.21,82-43.1,57.29,12.61,111.89-35.25,179.47-39.41,55.64-98.64,41.39-133.35,106.26C2260.31,2417.16,2270.86,2454.57,2256.3,2457.53Z" transform="translate(0 86.56)"/><g class="cls-28"><path class="cls-29" d="M2265.74,2377.81l-1.18-1.26c58.94-55.26,95.71-116.42,109.28-181.78,7.63-36.76,6.56-67.14,5.63-93.95-1.23-35-2.2-62.64,19.7-83,21.61-20.13,49.48-19.16,79-18.15,32.23,1.12,65.56,2.27,93.77-24.08,28-26.17,33.69-64,36.11-80.13,9.18-61.25-19-110.11-31.56-128.27l1.43-1c12.66,18.33,41.12,67.65,31.85,129.52-2.45,16.32-8.18,54.55-36.64,81.14-28.74,26.84-62.44,25.67-95,24.55-29.14-1-56.67-2-77.75,17.68-21.31,19.84-20.41,45.78-19.15,81.69.94,26.9,2,57.4-5.66,94.36C2361.89,2260.84,2325,2322.31,2265.74,2377.81Z" transform="translate(0 86.56)"/><path class="cls-29" d="M2571,1991.86c-4.72-1.52-8.56-3.95-10.93-7.63-5.24-8.15-.32-18,5.38-29.35,6.06-12.08,12.92-25.78,11.35-42.35-2.18-22.87-20.12-44.94-53.33-65.6l.92-1.47c33.69,21,51.9,43.47,54.13,66.9,1.63,17.08-5.66,31.62-11.52,43.3-5.69,11.35-10.18,20.31-5.47,27.63,9.13,14.2,43.25,8.22,59.65,5.34,37.89-6.64,73.66-23.55,106.31-50.25l1.1,1.35c-32.88,26.89-68.92,43.91-107.11,50.61C2608.73,1992.57,2585.64,1996.62,2571,1991.86Z" transform="translate(0 86.56)"/><path class="cls-29" d="M2379.61,2086.34l-.41-.49c-9.65-11.79-15.16-24.25-16.38-37-2.48-26,13.32-47.68,27.26-66.81,12.88-17.69,24-33,18.7-47.77-3-8.37-11-15.21-23.72-20.32l.64-1.61c13.23,5.3,21.54,12.48,24.71,21.34,5.61,15.68-5.76,31.3-18.93,49.38-13.76,18.88-29.35,40.29-26.94,65.62,1.17,12.26,6.42,24.24,15.6,35.61a143.33,143.33,0,0,1,51.42-10.24c54.32-.56,93.74,31.26,108.16,45l-1.2,1.26c-14.26-13.56-53.25-45-106.94-44.48a141.49,141.49,0,0,0-51.38,10.35Z" transform="translate(0 86.56)"/><path class="cls-29" d="M2354.79,2258.08l-.3-.3c-1.49-1.47-148.91-147.81-155.6-152.41l1-1.43c6.73,4.63,146.13,143,155.54,152.32l228.34-28.3.21,1.72Z" transform="translate(0 86.56)"/></g><path class="cls-3" d="M2256.81,2504.67a194.78,194.78,0,0,1-49.63-26.18c-20-14.57-39.07-28.5-46.38-51.89-8.43-27,8.37-35.49-.08-60.23-9.6-28.12-35.07-25.25-45-54.46-6.75-19.84-1-38.66,4.15-55.3,6.13-20,20.07-48.64,29.19-46.79,10.8,2.2-3.71,43.55,20.87,72.07,18.61,21.59,40.24,13.32,58.64,38.54,2.5,3.41,16.39,22.44,13.36,45.17-3.71,27.87-25.94,35.26-31.23,58.35C2206.92,2440.43,2213.09,2465.78,2256.81,2504.67Z" transform="translate(0 86.56)"/><g class="cls-30"><path class="cls-31" d="M2263,2514.46c-4-3.79-9.26-8.3-14.87-13.09-24.57-21-58.22-49.71-54.53-76.91,2-14.32,4.39-25.46,6.36-34.42,3.8-17.28,6.09-27.71.77-41.25-6.3-16.05-17.77-22.87-29.9-30.08-10.92-6.49-22.21-13.21-29.76-27.13-12.26-22.6-8.78-54.36,10.33-94.39l1.57.75c-18.86,39.5-22.36,70.72-10.38,92.81,7.33,13.51,18.41,20.1,29.12,26.47,11.86,7,24.11,14.33,30.63,30.93,5.51,14,3.18,24.66-.69,42.27-2,8.92-4.4,20-6.33,34.28-3.56,26.25,29.67,54.63,53.94,75.36,5.62,4.79,10.93,9.33,14.93,13.15Z" transform="translate(0 86.56)"/><path class="cls-31" d="M2151.71,2316.19a64,64,0,0,1-23.16-13.21c-27.32-24.47-21.06-62.45-20.78-64.05l1.71.29c-.28,1.57-6.39,38.63,20.23,62.47,13.79,12.34,29.74,15.42,39.26,16-4.16-4.38-13.95-16.69-11.89-33.54,1.71-14,10.6-22.85,14.34-26l1.11,1.33c-3.58,3-12.09,11.43-13.73,24.86-2.34,19.19,11.41,32.25,13,33.67l1.76,1.59-2.37-.08A71.37,71.37,0,0,1,2151.71,2316.19Z" transform="translate(0 86.56)"/><path class="cls-31" d="M2201.94,2383.61l-.3-1.06c-2.59-8.94-8.28-21.64-20.65-31.33-28-21.89-64.07-7.75-65.59-7.14l-.65-1.61c1.56-.62,38.58-15.11,67.3,7.38A62.51,62.51,0,0,1,2203,2381c5.68-3.41,20.19-13.81,24.86-33.18,6.47-26.87-11.37-46.95-13.43-49.15l1.27-1.18c2.12,2.27,20.53,23,13.85,50.74-5.12,21.24-21.68,32-26.63,34.83Z" transform="translate(0 86.56)"/><path class="cls-31" d="M2194,2437.24l-.47-1.3a78.77,78.77,0,0,0-53.08-49.15l.46-1.67a80.5,80.5,0,0,1,53.77,48.94l51.79-53.06,1.24,1.21Z" transform="translate(0 86.56)"/></g><path class="cls-4" d="M2224.12,1830.07c-12.93,6,9.46,40.68-.19,97.51-15.34,90.35-90.45,112.81-84,183.16,3.45,37.91,19.94,64.08,19.94,64.08,5.42,8.6,9.5,12.62,28.32,38.06,1.74,2.36,18.6,25.19,22.72,31.5,27.88,42.78-28.87,105.47-11.64,166.73,11.9,42.32,43.19,71.07,68.85,89.17-48.14-75.65-47.59-124.16-37-155.08,14.71-42.88,48.1-49.91,65.9-103.89,12.43-37.7.82-48.48,1.12-117.79.47-107.18,28.38-118.8,14.22-177.63C2295.72,1876.83,2240.28,1822.54,2224.12,1830.07Z" transform="translate(0 86.56)"/><g class="cls-32"><path class="cls-29" d="M2218.83,2441.79c-9.9-34.79-11-68.25-3.31-99.44,5.92-24,14.81-37.86,23.4-51.3,8.32-13,16.18-25.33,20-45.55,5.43-28.84-2.55-45.49-11.8-64.77-7.85-16.37-16.75-34.94-18.18-64.19-2-39.9,11.59-64.82,24.68-88.92,12.28-22.58,23.87-43.91,23.52-76.55-.48-45-24.58-90.84-71.64-136.25l1.21-1.25c47.4,45.75,71.68,92,72.16,137.48.36,33.1-11.88,55.62-23.72,77.4-13,23.89-26.41,48.6-24.48,88,1.41,28.9,10.24,47.29,18,63.52,9.38,19.55,17.47,36.44,11.93,65.85-3.87,20.54-11.82,33-20.23,46.15-8.52,13.33-17.32,27.1-23.17,50.78-7.64,30.9-6.53,64.06,3.29,98.56Z" transform="translate(0 86.56)"/><path class="cls-29" d="M2266.16,2005.29l0-1.42c.31-11-1.33-39.06-23.2-63.17-19.78-21.81-44.75-27.29-54.58-28.63l.24-1.72c10,1.37,35.46,7,55.62,29.18,21.41,23.6,23.81,50.94,23.68,63a91.9,91.9,0,0,0,34.27-28.78c20.14-28.13,17.6-59.18,15.57-71.22l1.71-.29c2.06,12.26,4.65,43.86-15.87,72.52a93.72,93.72,0,0,1-36.2,29.94Z" transform="translate(0 86.56)"/><path class="cls-29" d="M2243.21,2170.38l-.88-.4c-13.6-6.11-24.11-14.64-31.24-25.36-8.32-12.51-9.46-24.08-10.66-36.34-.73-7.47-1.48-15.2-3.92-23.56-6.19-21.24-21.79-40.48-46.35-57.17l1-1.43c24.91,16.92,40.74,36.47,47,58.12,2.49,8.51,3.25,16.32,4,23.87,1.18,12,2.29,23.4,10.37,35.55,6.79,10.21,16.76,18.39,29.62,24.34a268.81,268.81,0,0,1,72-113.7l1.19,1.26a267,267,0,0,0-71.83,113.9Z" transform="translate(0 86.56)"/><path class="cls-29" d="M2253.77,2266.31l-.3-1.49c-1.43-7-7.87-30.9-30.87-45.71-30-19.33-62.44-7-66-5.49l-.65-1.6c3.68-1.51,36.86-14.18,67.63,5.63,22.14,14.26,29.31,36.75,31.3,45.34a172.88,172.88,0,0,0,30.25-36.6,176.56,176.56,0,0,0,24.91-73.63l1.72.18a178.26,178.26,0,0,1-25.15,74.36,175.12,175.12,0,0,1-31.67,38Z" transform="translate(0 86.56)"/></g><path class="cls-33" d="M2273.5,2508.11c-14.49-7.59-40.86-24-55.74-52.67-26.65-51.34-.48-111.2,34.64-139.74,43.84-35.62,79.17-4.19,120.55-37.74,47-38.1,16.51-90.86,65.37-130.37,33.17-26.82,76.48-26.18,114.78-25.61,45.92.68,116.91,12.66,122.05,33.32,6.09,24.51-90.82,19.24-124.06,89.65-25.17,53.32,12.39,94.48-20.24,149.62-4.42,7.48-29,49.08-77.5,56.78-63.37,10.06-108.45-47.25-147.19-30.47C2290.44,2427.69,2273.64,2447.62,2273.5,2508.11Z" transform="translate(0 86.56)"/><g class="cls-34"><path class="cls-35" d="M2268.27,2526c-29.64-65.77-34.21-113.13-13.59-140.78,16.46-22,41.89-23.83,71.33-25.89,29.83-2.09,63.63-4.46,94.32-29.6,28-23,35-49.17,42.32-76.93,6.67-25.19,13.57-51.24,37.73-74.24,38.68-36.82,103.62-47.71,193-32.39l-.3,1.71c-88.82-15.23-153.26-4.48-191.52,31.94-23.81,22.65-30.65,48.46-37.26,73.42-7.09,26.8-14.43,54.52-42.89,77.83-31.12,25.5-65.21,27.88-95.3,30-29,2-54.08,3.78-70.06,25.2-20.22,27.1-15.58,73.88,13.78,139Z" transform="translate(0 86.56)"/><path class="cls-35" d="M2439.46,2316a13.43,13.43,0,0,1-2.11-.88c-11.89-6.18-11.67-28-11.46-49.08a186,186,0,0,1,15.17-71.56c17.65-40.09,46.13-66.31,66.91-81.24l1,1.41c-20.6,14.8-48.84,40.79-66.33,80.53a184.15,184.15,0,0,0-15,70.88c-.21,20.56-.43,41.83,10.52,47.52,17.27,9,52.89-25.31,66.3-38.22l1-1a187.07,187.07,0,0,0,20.24-23.44c7.41-9.74,13.8-18.16,25.78-25.33,18.07-10.81,41-13.9,68.2-9.18l-.3,1.71c-26.76-4.65-49.3-1.63-67,9-11.7,7-18,15.29-25.3,24.89a189.61,189.61,0,0,1-20.41,23.64l-1,1C2492.51,2289.25,2458.39,2322.11,2439.46,2316Z" transform="translate(0 86.56)"/><path class="cls-35" d="M2409.28,2407.45c-18.73-6.06-40.66-22.15-65.58-48.15l-.75-.8.94-.55c15.8-9.33,28.07-21.28,36.48-35.53,9.86-16.72,11.44-31.86,13.62-52.82l.17-1.72c6.49-62.21,9.74-93.44,15.13-106.62,10.5-25.66,32.16-47.47,64.4-64.82l.82,1.53c-31.87,17.15-53.28,38.67-63.61,64-5.3,12.95-8.54,44.09-15,106.14l-.18,1.72c-2.2,21.18-3.79,36.48-13.85,53.52-8.39,14.22-20.55,26.19-36.15,35.58,37.39,38.82,67.76,55,90.28,48,12.55-3.88,19.42-13.76,27.38-25.2s17-24.46,33.88-34.66c21.82-13.2,49.34-17.16,81.81-11.78l-.28,1.71c-32.05-5.31-59.18-1.42-80.63,11.55-16.55,10-25.48,22.85-33.35,34.17-8.15,11.71-15.18,21.81-28.3,25.87Q2424.3,2412.31,2409.28,2407.45Z" transform="translate(0 86.56)"/><path class="cls-36" d="M2382,2469.75c-44.27-14.32-68.57-46.55-68.83-46.9-1.36-1.83-2.72-3.79-4.12-5.81-7.37-10.6-15.73-22.61-30.65-26.55-8.1-2.14-17-1.57-26.45,1.69l-1.14.39v-1.2c-.1-11.21,2.53-20.84,7.8-28.62,6.72-9.91,16.71-13.9,25.52-17.43,9-3.59,16.78-6.7,19.54-15,6.5-19.66-3.69-37-5.79-40.28l1.45-.94c2.19,3.39,12.74,21.35,6,41.76-3,9.1-11.52,12.5-20.54,16.11-8.58,3.42-18.3,7.31-24.72,16.78-4.89,7.21-7.41,16.1-7.51,26.44,9.36-3,18.2-3.48,26.31-1.35,15.56,4.09,24.09,16.39,31.63,27.24,1.39,2,2.75,3.95,4.1,5.77.27.36,27.51,36.49,76.91,48.84,47.79,12,95.49-23.25,113.77-38.94l1.13,1.32c-18.49,15.86-66.74,51.46-115.32,39.31Q2386.39,2471.18,2382,2469.75Z" transform="translate(0 86.56)"/></g><polygon class="cls-37" points="778.66 2539.99 1342.11 2399.05 1370.29 2535.94 854.47 2774.01 446.03 2673.12 199.65 2431.21 778.66 2539.99"/><polygon class="cls-38" points="778.66 2539.99 1342.11 2399.05 1370.29 2535.94 854.47 2774.01 446.03 2673.12 199.65 2431.21 778.66 2539.99"/><path class="cls-39" d="M760.94,2642.91c112-60,194.7-121.18,250.84-167.41,110.46-90.94,161.13-159.55,273-186.66,20-4.84,133.85-32.44,170.6,18.12,40.68,56-38.41,173.05-48,187.27C1264.45,2705.7,900.62,2695.84,786.5,2689Q773.72,2665.94,760.94,2642.91Z" transform="translate(0 86.56)"/><path class="cls-40" d="M1455.34,2307c-10.74-14.77-28.14-22.75-47.78-26.69,6.53,22.63,7.13,43.87-1,62.42-22.32,50.71-88.43,35.09-134.86,94.61-45.61,58.45-14,114.78-54.35,138.89-46.21,27.63-103.49-36.92-153-6-33.65,21-23.18,60.83-62.4,82.53-27.1,15-53.67,7.91-84.54,4-35.39-4.45-83.87-5.4-144.72,7.31q6.92,12.48,13.85,25c114.11,6.86,477.94,16.72,620.81-194.75C1416.93,2480,1496,2362.94,1455.34,2307Z" transform="translate(0 86.56)"/><path class="cls-41" d="M845.61,2674.51s20.52-14.71,50.3-4.68,77.06,18.12,77,32.68-47.38,23.67-80.07,17.68C861.55,2714.47,837,2687.29,845.61,2674.51Z" transform="translate(0 86.56)"/><path class="cls-42" d="M815.54,2649.66l54.8,17.63s8.9,14.83-3.11,24.23S813.47,2681,813.47,2681Z" transform="translate(0 86.56)"/><path class="cls-43" d="M53.83,2397C37.65,2491.25,241,2593.16,287.52,2616.49c94.86,47.55,273.36,114.67,538.27,89q5.28-31.7,10.57-63.41a1253.32,1253.32,0,0,1-147-61.07c-102.7-50.52-141.7-86.6-284.22-172.77-157.7-95.34-203.63-107.57-250.62-95.77C114.3,2322.59,61.35,2353.26,53.83,2397Z" transform="translate(0 86.56)"/><path class="cls-44" d="M265.69,2217.89c-34.37-124.3,22.37-292,141.91-372.9,97.58-66,211.92-61.72,247.6-60.38,39,1.46,35,6.53,157.95,29.27,170.67,31.58,186.43,23.93,236.08,47.72,93.35,44.74,138.65,126,147.13,141.85,43.38,81,78.69,231.43-3.71,305-46.84,41.84-112.51,41.66-149.46,37.74q-3.78-24.9-7.55-49.82c7.52-5.82,51.89-41.39,57.37-104.17,6.3-72.15-44.13-118.72-49.82-123.79A490,490,0,0,0,1005.05,2422c-45.14,24.77-119.78,58.39-217,69.14-73.25,8.11-163.94-7.41-221.93-52.72-81.81-63.94-88.73-204.9-7.92-378.22-29.58,19.82-72.43,55.66-90.21,112.4-2.68,8.58-7.24,25.41-9.06,90.58C455.67,2380.26,301.31,2346.7,265.69,2217.89Z" transform="translate(0 86.56)"/><path class="cls-45" d="M819.75,2303.94c-41.17,5-52.37,47.8-90.58,45.29-83.13-5.44-149.85-149.35-114.74-228,22.9-51.25,82.58-60.19,78.51-93.6-3.26-26.74-44.68-47.31-78.51-48.31-52.66-1.57-87.43,44.29-99.64,60.38-28.51,37.61-34.66,78.91-35.31,105.46,20.93-41,54.26-68.61,78.72-85-80.81,173.32-73.89,311.08,7.92,375,58,45.31,148.68,64,221.93,55.92a581.54,581.54,0,0,0,188.39-54.41C932.27,2364.83,876,2297,819.75,2303.94Z" transform="translate(0 86.56)"/><polygon class="cls-46" points="963.23 2507.75 481.47 2500.56 609.58 2562.39 964.47 2539.16 963.23 2507.75"/><path class="cls-47" d="M289,2135.06c37.17-35.19,128.37-13,162.4,37.54,25,37.22,4.31,67.84,22.64,114.73,22.45,57.45,107.15,109.39,159.2,126.67-8.15,17.55-5.75,22.09-13.9,39.63-33.11-4.14-272.44-40.8-331-182.9C285.29,2263.32,249.12,2172.8,289,2135.06Z" transform="translate(0 86.56)"/><path class="cls-24" d="M832.25,1764.08s-39,42.13-71.31,46.52-79.07-4.21-87.12,0,40.61,21.51,79.21,32.1,108.68,31.74,128.06,27.11-21.17-29.48-37.23-36.06,6.92-40.42,6.92-40.42Z" transform="translate(0 86.56)"/><path class="cls-48" d="M890.05,1788.21c14.09-3.89,27-19.7,26.8-36.09-.14-14.1-10-23.72-16-29.49-17.17-16.69-47-27.15-68.65-16.17-12.83,6.5-18.68,36-20,41.15-1.47,5.79.79,9.91,1.41,15.62.87,7.92,2.13,20.43,4,41.14a98.41,98.41,0,0,1,14.14-9.49,86.85,86.85,0,0,1,20.53-8.13C871.37,1782.34,876.7,1791.89,890.05,1788.21Z" transform="translate(0 86.56)"/><path class="cls-24" d="M809.57,1781.92s-3.27,29.87,22.64,47.27c23.19,15.58,64.58-31.46,58.57-52.84-2-7.14-10.31-15.85-19.63-19.61-5.5-2.22-8.48-1.52-17.41-5.32-8.23-3.5-9.58-5.76-13-5.61-4.27.18-10.29,4.07-17.12,21.88-.92-7.51-4.72-13-9.61-14.12a9.58,9.58,0,0,0-5.15.6C801.43,1757.45,801,1768.66,809.57,1781.92Z" transform="translate(0 86.56)"/><path class="cls-49" d="M842,1742.08c.45,1.61-5.86,3.08-10.44,8.52-8.88,10.55-7.93,32.17,2.49,42,6.16,5.79,11.09,3.18,23,10.51a63.38,63.38,0,0,1,15.36,13.31c-5.76,14.64-18.21,24.07-30.48,23.44-13.22-.67-21.44-12.77-24.88-17.83-2.3-3.38-9.68-14.2-7.86-27.22,1.89-13.57,11.54-15.19,10.29-26.31-.64-5.62-3.65-10.16-2.83-19.45a38.87,38.87,0,0,1,1-5.92C828,1741.46,841.37,1739.74,842,1742.08Z" transform="translate(0 86.56)"/><path class="cls-50" d="M861,1814.65s-6.69-1.18-14.58-8c-.39-.33-.92-.55-1.13-.38-.79.63,1.8,8.21,7.73,10.6,4.21,1.69,9.42.49,9.6-.7C862.7,1815.66,861.88,1815.11,861,1814.65Z" transform="translate(0 86.56)"/><path class="cls-51" d="M646,2171.91l-34,309.2c-1.18,10.67,13.76,26.56,24.48,26l498.17-30.58a17.47,17.47,0,0,0,16.39-14.49l62.52-298.63c1.87-10.86-17.67-22.09-28.69-21.78l-522.05,14.68A17.47,17.47,0,0,0,646,2171.91Z" transform="translate(0 86.56)"/><path class="cls-52" d="M657.39,2180.93l-34,309.19a17.48,17.48,0,0,0,18.19,19.36l504.47-23.89a17.45,17.45,0,0,0,16.38-14.48l51.54-300a17.46,17.46,0,0,0-17.7-20.41l-522,14.68A17.45,17.45,0,0,0,657.39,2180.93Z" transform="translate(0 86.56)"/><path class="cls-53" d="M953.61,2413.14c-44.05-18.67-28.5-54.27-80.51-98.63-68.62-58.52-138.57-33.14-163.05-78.5-7.63-14.13-11.27-36.12,2-71.7l-37.8,1.07a17.45,17.45,0,0,0-16.87,15.55l-34,309.19a17.48,17.48,0,0,0,18.19,19.36l504.47-23.89a17.45,17.45,0,0,0,16.38-14.48l7.12-41.4a190.58,190.58,0,0,0-54.94-20.59C1040.64,2394.11,1004.32,2434.64,953.61,2413.14Z" transform="translate(0 86.56)"/><path class="cls-24" d="M604.22,2442.87c21.07,19.73,35.15,18,39.88,16.88,7.93-1.82,9-6.24,29.11-22,18-14.07,23.64-15.65,23.43-20.5-.4-9.18-21.34-17.22-38.4-18.08-23.91-1.2-42,11.65-49.07,17.36Z" transform="translate(0 86.56)"/></g></g></g></g></svg>