<svg xmlns="http://www.w3.org/2000/svg" xmlns:xlink="http://www.w3.org/1999/xlink" viewBox="0 0 885.56 825.98"><defs><style>.cls-1,.cls-10,.cls-11,.cls-12,.cls-13,.cls-14,.cls-15,.cls-16,.cls-17,.cls-18,.cls-19,.cls-2,.cls-20,.cls-21,.cls-22,.cls-3,.cls-4,.cls-5,.cls-6,.cls-7,.cls-8,.cls-9{fill:none;stroke-miterlimit:10;}.cls-1{stroke:url(#radial-gradient);}.cls-2{stroke:url(#radial-gradient-2);}.cls-3{stroke:url(#radial-gradient-3);}.cls-4{stroke:url(#radial-gradient-4);}.cls-5{stroke:url(#radial-gradient-5);}.cls-6{stroke:url(#radial-gradient-6);}.cls-7{stroke:url(#radial-gradient-7);}.cls-8{stroke:url(#radial-gradient-8);}.cls-9{stroke:url(#radial-gradient-9);}.cls-10{stroke:url(#radial-gradient-10);}.cls-11{stroke:url(#radial-gradient-11);}.cls-12{stroke:url(#radial-gradient-12);}.cls-13{stroke:url(#radial-gradient-13);}.cls-14{stroke:url(#radial-gradient-14);}.cls-15{stroke:url(#radial-gradient-15);}.cls-16{stroke:url(#radial-gradient-16);}.cls-17{stroke:url(#radial-gradient-17);}.cls-18{stroke:url(#radial-gradient-18);}.cls-19{stroke:url(#radial-gradient-19);}.cls-20{stroke:url(#radial-gradient-20);}.cls-21{stroke:url(#radial-gradient-21);}.cls-22{stroke:url(#radial-gradient-22);}</style><radialGradient id="radial-gradient" cx="-546.78" cy="632.9" r="362.02" gradientTransform="matrix(-0.51, 0.88, 0.41, 0.18, -255.21, 745.38)" gradientUnits="userSpaceOnUse"><stop offset="0" stop-color="#94d1ff" stop-opacity="0"/><stop offset="0.53" stop-color="#d4ecff" stop-opacity="0.7"/><stop offset="0.65" stop-color="#8d9ca9" stop-opacity="0.46"/><stop offset="0.76" stop-color="#505960" stop-opacity="0.26"/><stop offset="0.87" stop-color="#24292c" stop-opacity="0.12"/><stop offset="0.95" stop-color="#0a0b0c" stop-opacity="0.03"/><stop offset="1" stop-opacity="0"/></radialGradient><radialGradient id="radial-gradient-2" cx="-545.11" cy="630.88" r="363.04" gradientTransform="matrix(-0.51, 0.88, 0.41, 0.18, -253.05, 741.7)" xlink:href="#radial-gradient"/><radialGradient id="radial-gradient-3" cx="-543.77" cy="628.6" r="364.34" gradientTransform="matrix(-0.51, 0.88, 0.41, 0.18, -250.46, 738.45)" xlink:href="#radial-gradient"/><radialGradient id="radial-gradient-4" cx="-542.42" cy="626.06" r="365.82" gradientTransform="matrix(-0.51, 0.88, 0.41, 0.18, -247.52, 735.07)" xlink:href="#radial-gradient"/><radialGradient id="radial-gradient-5" cx="-541.06" cy="623.25" r="367.48" gradientTransform="matrix(-0.51, 0.88, 0.41, 0.18, -244.23, 731.56)" xlink:href="#radial-gradient"/><radialGradient id="radial-gradient-6" cx="-539.69" cy="620.19" r="369.3" gradientTransform="matrix(-0.51, 0.88, 0.41, 0.18, -240.62, 727.92)" xlink:href="#radial-gradient"/><radialGradient id="radial-gradient-7" cx="-538.3" cy="616.96" r="371.25" gradientTransform="matrix(-0.51, 0.88, 0.41, 0.18, -236.78, 724.19)" xlink:href="#radial-gradient"/><radialGradient id="radial-gradient-8" cx="-536.9" cy="613.73" r="373.21" gradientTransform="matrix(-0.51, 0.88, 0.41, 0.18, -232.94, 720.44)" xlink:href="#radial-gradient"/><radialGradient id="radial-gradient-9" cx="-535.49" cy="610.49" r="375.18" gradientTransform="matrix(-0.51, 0.88, 0.41, 0.18, -229.1, 716.65)" xlink:href="#radial-gradient"/><radialGradient id="radial-gradient-10" cx="-534.06" cy="607.26" r="377.17" gradientTransform="matrix(-0.51, 0.88, 0.41, 0.18, -225.27, 712.83)" xlink:href="#radial-gradient"/><radialGradient id="radial-gradient-11" cx="-532.6" cy="604.02" r="379.16" gradientTransform="matrix(-0.51, 0.88, 0.41, 0.18, -221.45, 708.99)" xlink:href="#radial-gradient"/><radialGradient id="radial-gradient-12" cx="-531.13" cy="600.79" r="381.17" gradientTransform="matrix(-0.51, 0.88, 0.41, 0.18, -217.64, 705.11)" xlink:href="#radial-gradient"/><radialGradient id="radial-gradient-13" cx="-529.64" cy="597.56" r="383.19" gradientTransform="matrix(-0.51, 0.88, 0.41, 0.18, -213.83, 701.19)" xlink:href="#radial-gradient"/><radialGradient id="radial-gradient-14" cx="-528.13" cy="594.32" r="385.22" gradientTransform="matrix(-0.51, 0.88, 0.41, 0.18, -210.02, 697.24)" xlink:href="#radial-gradient"/><radialGradient id="radial-gradient-15" cx="-526.59" cy="591.09" r="387.26" gradientTransform="matrix(-0.51, 0.88, 0.41, 0.18, -206.23, 693.25)" xlink:href="#radial-gradient"/><radialGradient id="radial-gradient-16" cx="-525.04" cy="587.86" r="389.31" gradientTransform="matrix(-0.51, 0.88, 0.41, 0.18, -202.44, 689.23)" xlink:href="#radial-gradient"/><radialGradient id="radial-gradient-17" cx="-523.47" cy="584.63" r="391.37" gradientTransform="matrix(-0.51, 0.88, 0.41, 0.18, -198.66, 685.18)" xlink:href="#radial-gradient"/><radialGradient id="radial-gradient-18" cx="-521.88" cy="581.39" r="393.44" gradientTransform="matrix(-0.51, 0.88, 0.41, 0.18, -194.88, 681.11)" xlink:href="#radial-gradient"/><radialGradient id="radial-gradient-19" cx="-520.27" cy="578.16" r="395.51" gradientTransform="matrix(-0.51, 0.88, 0.41, 0.18, -191.11, 677)" xlink:href="#radial-gradient"/><radialGradient id="radial-gradient-20" cx="-518.65" cy="574.93" r="397.6" gradientTransform="matrix(-0.51, 0.88, 0.41, 0.18, -187.35, 672.87)" xlink:href="#radial-gradient"/><radialGradient id="radial-gradient-21" cx="-516.99" cy="571.7" r="399.69" gradientTransform="matrix(-0.51, 0.88, 0.41, 0.18, -183.6, 668.66)" xlink:href="#radial-gradient"/><radialGradient id="radial-gradient-22" cx="-515.33" cy="568.47" r="401.8" gradientTransform="matrix(-0.51, 0.88, 0.41, 0.18, -179.84, 664.47)" xlink:href="#radial-gradient"/></defs><g id="Layer_2" data-name="Layer 2"><g id="Layer_1-2" data-name="Layer 1"><path class="cls-1" d="M37.23,822.35c40.56,12.33,82-13.67,95.05-45.61s6.34-67.87,4.36-102.45,2.54-72.17,32-94.9c37.64-29.06,103.78-24.4,139.76-54.84,28-23.73,28.58-61.74,17.59-93.91-6.21-18.2-19.35-35.22-27.33-53C262.46,296.93,160.81,271.83,157.42,208.7c-3.67-68.37,42.69-95.88,72.42-102.76,38.09-8.8,134-17.06,184.34,59.71,20.44,31.19,42.63,62.38,72.56,88.28,44.8,38.76,122,53.86,171,25.35,33.6-19.54,51.72-56.19,91.78-66,26.93-6.63,58.39,1.24,82.13,16.23s40.65,36.24,53.43,58.23"/><path class="cls-2" d="M35.46,820.45c42,11.28,85.26-14.17,99.36-46.92,13.75-32,7.3-68.43,4.43-103.2C136.42,636,139.36,599,166.6,576c34.84-29.47,98-27.17,133.64-57.65,28.23-24.29,31.2-61.17,22.44-93.66-5-18.62-17-36.69-25-55.22-33.93-78.83-132-104-135.44-165.84-3.67-66.46,40.55-94.2,69.93-101.64,37.27-9.43,129.73-17,179.93,56,20.78,30.2,43.64,60.48,73.42,86,43.77,37.68,118.24,52.65,166.42,26.16,33.42-18.37,52.43-53.36,92-63.25,27.06-6.8,58.26.14,82.42,13.9,24.43,13.92,42.74,34.07,56.87,55.57"/><path class="cls-3" d="M33.69,818.55c43.44,10.24,88.46-14.67,103.66-48.24,14.47-32,8.27-69,4.51-103.94-3.67-34.11-2.32-70.42,22.72-93.85,32-29.87,92.39-29.85,127.52-60.44,28.48-24.79,33.84-60.66,27.28-93.42-3.81-19.07-14.72-38.15-22.69-57.42C264.89,284.34,170.5,258.92,167,198.48,163.35,133.94,205.44,106,234.46,98,270.9,87.91,360,81,410,150.15c21.14,29.21,44.65,58.58,74.29,83.77,42.74,36.6,114.45,51.45,161.77,27,33.27-17.2,53.15-50.54,92.23-60.44,27.2-7,58.15-1,82.71,11.57,25.13,12.84,44.82,31.9,60.31,52.9"/><path class="cls-4" d="M31.92,816.65c44.88,9.2,91.65-15.16,108-49.56,15.19-32,9.26-69.52,4.59-104.68-4.49-33.86-4.75-69.55,18.09-93.32,29.26-30.28,86.69-32.58,121.4-63.24,28.69-25.34,36.52-60.18,32.13-93.18-2.6-19.54-12.42-39.59-20.38-59.63-29.77-74.91-120.36-100.58-123.9-159.67-3.66-62.63,36.29-90.81,65-99.4,35.62-10.66,121.35-16.88,171.11,48.43C429.4,170.64,453.61,199,483,223.92c41.8,35.41,110.7,50.26,157.14,27.8,33.12-16,53.88-47.64,92.45-57.65,27.35-7.09,58.06-2.1,83,9.24,25.84,11.76,46.89,29.73,63.73,50.24"/><path class="cls-5" d="M30.15,814.75c46.32,8.16,94.82-15.67,112.27-50.88,15.87-32.06,10.24-70.06,4.66-105.42-5.31-33.61-7.17-68.68,13.46-92.79,26.46-30.69,81-35.33,115.28-66,28.91-25.88,39.24-59.74,37-92.94-1.36-20-10.12-41-18.06-61.83C266.9,272,180.19,246,176.61,188.26,173,127.54,210.76,99.15,239.08,90c34.8-11.27,117.26-16.86,166.71,44.66,21.91,27.27,46.75,54.68,76,79.27,40.8,34.29,107,49.09,152.5,28.61,33-14.85,54.6-44.79,92.68-54.84,27.5-7.26,58-3.24,83.3,6.91,26.58,10.66,49,27.55,67.17,47.57"/><path class="cls-6" d="M28.38,812.85c47.76,7.11,98-16.17,116.57-52.2,16.56-32.1,11.25-70.59,4.74-106.16-6.11-33.36-9.66-67.85,8.83-92.26,23.6-31.15,75.28-38.07,109.16-68.84,29.12-26.43,42-59.32,41.82-92.7-.11-20.54-7.83-42.46-15.75-64-26-70.79-108.71-97.11-112.35-153.5-3.65-58.82,32-87.41,60-97.16,34-11.85,113.26-16.84,162.3,40.9,22.33,26.3,47.77,52.76,76.87,77,39.79,33.18,103.26,47.94,147.86,29.42,32.89-13.66,55.32-42,92.9-52,27.64-7.41,57.92-4.39,83.59,4.59,27.33,9.55,51.06,25.37,70.61,44.9"/><path class="cls-7" d="M26.61,811c49.21,6.07,101.14-16.69,120.87-53.52,17.23-32.15,12.27-71.13,4.82-106.9-6.89-33.1-12.1-67,4.2-91.74,20.79-31.56,69.56-40.82,103-71.63,29.33-27,44.79-58.92,46.66-92.46,1.17-21.05-5.55-43.89-13.42-66.24-24.22-68.66-102.9-95.37-106.58-150.41-3.65-56.91,29.89-85.69,57.5-96C276.85,69.58,353,65.15,401.59,119.15a736,736,0,0,0,77.73,74.77C518.1,226,578.9,240.73,622.54,224.15c32.81-12.46,56-39.11,93.13-49.23,27.78-7.58,57.87-5.56,83.88,2.25a192.16,192.16,0,0,1,74.05,42.24"/><path class="cls-8" d="M24.84,809.05c50.65,5,104.28-17.2,125.18-54.84,17.88-32.2,13.28-71.67,4.89-107.64-7.67-32.85-14.54-66.11-.43-91.21,18-32,63.85-43.57,96.92-74.43,29.53-27.54,47.64-58.52,51.51-92.22,2.47-21.57-3.28-45.31-11.11-68.44-22.52-66.51-97.07-93.64-100.8-147.33-3.65-55,27.75-84,55-94.92C278.34,65,351.5,61.11,399.49,111.4a884.88,884.88,0,0,0,78.6,72.52c37.76,31,95.91,45.7,138.58,31,32.73-11.24,56.75-36.28,93.35-46.43,27.92-7.74,57.83-6.74,84.17-.07A196.24,196.24,0,0,1,871.68,208"/><path class="cls-9" d="M23.07,807.15c52.09,4,107.4-17.72,129.48-56.16,18.53-32.25,14.32-72.21,5-108.38-8.44-32.6-17-65.23-5.06-90.68,15.17-32.37,58.13-46.34,90.81-77.23,29.72-28.1,50.51-58.12,56.34-92,3.81-22.1-1-46.72-8.79-70.64-20.9-64.33-91.25-91.9-95-144.25-3.64-53.09,25.62-82.23,52.53-93.8,31.51-13.55,101.73-17,149.07,29.62,23.78,23.42,50.84,47,79.46,70.27,36.74,29.86,92.28,44.63,133.94,31.86,32.68-10,57.47-33.45,93.58-43.63,28.06-7.91,57.79-7.94,84.47-2.4a200.29,200.29,0,0,1,80.92,36.9"/><path class="cls-10" d="M21.3,805.25c53.53,2.94,110.52-18.25,133.78-57.48,19.17-32.31,15.38-72.75,5-109.12-9.19-32.35-19.42-64.35-9.69-90.16,12.36-32.76,52.4-49.09,84.69-80,29.92-28.67,53.43-57.72,61.18-91.74,5.16-22.61,1.23-48.12-6.47-72.84-19.34-62.12-85.53-90.16-89.25-141.17-3.74-51.17,23.49-80.49,50-92.68,30.69-14.1,98.07-17.13,144.66,25.86,24.33,22.45,51.86,45.09,80.32,68,35.73,28.77,88.67,43.6,129.31,32.68,32.64-8.78,58.18-30.62,93.8-40.83A195.8,195.8,0,0,1,783.48,151a204.16,204.16,0,0,1,84.36,34.24"/><path class="cls-11" d="M19.53,803.35c55,1.9,113.63-18.79,138.09-58.8,19.79-32.38,16.43-73.29,5.12-109.86-9.94-32.11-21.85-63.47-14.32-89.63C158,511.9,195.09,493.2,227,462.24c30.12-29.24,56.37-57.31,66-91.5,6.53-23.12,3.45-49.52-4.15-75.05-17.84-59.88-79.72-88.42-83.48-138.08-3.74-49.26,21.36-78.73,47.56-91.56,29.87-14.63,94.47-17.33,140.24,22.1,24.91,21.46,52.87,43.18,81.19,65.76,34.69,27.68,85.08,42.6,124.66,33.49,32.63-7.51,58.9-27.8,94-38a214,214,0,0,1,85-7.06,207.89,207.89,0,0,1,87.8,31.57"/><path class="cls-12" d="M17.76,801.45c56.41.85,116.73-19.33,142.39-60.12,20.42-32.45,17.5-73.84,5.2-110.6-10.67-31.87-24.28-62.59-18.95-89.1,6.76-33.56,40.94-54.64,72.45-85.62,30.31-29.81,59.35-56.88,70.87-91.26,7.92-23.62,5.66-50.91-1.83-77.25-16.4-57.64-73.9-86.68-77.71-135-3.74-47.36,19.24-77,45.08-90.45,29.06-15.15,91-17.59,135.84,18.34,25.52,20.45,53.88,41.27,82,63.51,33.67,26.59,81.51,41.63,120,34.3,32.61-6.21,59.61-25,94.25-35.22,28.48-8.42,57.72-11.63,85.34-9.39A211.47,211.47,0,0,1,864,162.51"/><path class="cls-13" d="M16,799.55c57.85-.19,119.82-19.87,146.69-61.44,21-32.52,18.59-74.39,5.28-111.33-11.4-31.64-26.71-61.72-23.57-88.58,4-34,35.19-57.42,66.32-88.42,30.5-30.38,62.34-56.44,75.72-91,9.33-24.11,7.84-52.29.48-79.45-15-55.37-68.07-84.95-71.93-131.91-3.74-45.45,17.11-75.21,42.59-89.33C285.83,42.41,345.13,40.14,389,72.65c26.18,19.4,54.89,39.36,82.91,61.26,32.63,25.5,77.94,40.71,115.38,35.11,32.62-4.87,60.33-22.15,94.48-32.41,28.61-8.6,57.69-12.89,85.63-11.72a214.88,214.88,0,0,1,94.68,26.24"/><path class="cls-14" d="M14.22,797.65c59.29-1.23,122.9-20.42,151-62.76,21.64-32.6,19.67-74.94,5.35-112.07-12.12-31.4-29.14-60.84-28.2-88.06,1.17-34.35,29.45-60.19,60.2-91.21s65.35-56,80.56-90.78c10.75-24.59,10-53.67,2.8-81.66C272.27,218,223.68,187.9,219.77,142.29c-3.72-43.54,15-73.44,40.11-88.21,27.46-16.17,84.22-18.35,127,10.82,26.88,18.32,55.9,37.46,83.77,59,31.6,24.42,74.39,39.83,110.75,35.93,32.63-3.51,61-19.34,94.7-29.62,28.75-8.78,57.66-14.16,85.92-14a218.05,218.05,0,0,1,98.11,23.57"/><path class="cls-15" d="M12.46,795.75c60.72-2.27,126-21,155.29-64.08,22.25-32.69,20.77-75.5,5.43-112.81-12.83-31.17-31.56-60-32.83-87.53-1.61-34.75,23.71-63,54.08-94,30.86-31.54,68.37-55.5,85.41-90.54,12.18-25.06,12.13-55,5.12-83.86-12.37-50.81-56.43-81.47-60.39-125.74-3.72-41.63,12.89-71.65,37.62-87.09,26.67-16.66,80.94-18.86,122.61,7.06,27.62,17.17,56.9,35.57,84.64,56.76,30.55,23.35,70.84,39,106.1,36.74,32.65-2.1,61.75-16.52,94.93-26.82,28.89-9,57.63-15.44,86.22-16.37a221.37,221.37,0,0,1,101.54,20.91"/><path class="cls-16" d="M10.69,793.85c62.16-3.32,129-21.55,159.6-65.4,22.84-32.78,21.88-76.07,5.49-113.55-13.52-30.94-34-59.08-37.45-87-4.39-35.15,18-65.76,48-96.81,31-32.13,71.41-55,90.25-90.3,13.62-25.51,14.23-56.4,7.44-86.06-11.11-48.52-50.6-79.74-54.61-122.66-3.71-39.71,10.79-69.85,35.13-86C290.38,29,342.21,26.63,382.7,49.4c28.39,16,57.9,33.67,85.5,54.51,29.51,22.28,67.29,38.22,101.47,37.55,32.66-.64,62.46-13.71,95.15-24,29-9.14,57.59-16.74,86.51-18.7a224.7,224.7,0,0,1,105,18.23"/><path class="cls-17" d="M8.92,792c63.6-4.36,132.09-22.12,163.9-66.72,23.44-32.87,23-76.64,5.57-114.29-14.22-30.72-36.38-58.2-42.08-86.48-7.17-35.54,12.21-68.54,41.84-99.61,31.21-32.71,74.44-54.48,95.1-90.05,15.07-25.95,16.28-57.76,9.75-88.27-9.89-46.21-44.77-78-48.84-119.57-3.69-37.8,8.7-68,32.65-84.85,25.11-17.62,74.52-20.18,113.79-.46C409.8,56.31,439.5,73.44,467,93.9c28.47,21.22,63.73,37.49,96.83,38.37,32.66.87,63.17-10.9,95.38-21.21,29.16-9.32,57.55-18,86.8-21A228,228,0,0,1,854.39,105.6"/><path class="cls-18" d="M7.15,790.05c65.05-5.4,135.14-22.7,168.2-68,24-33,24.13-77.22,5.65-115-14.91-30.51-38.8-57.33-46.71-86-9.95-35.95,6.45-71.33,35.72-102.41,31.38-33.3,77.49-54,99.94-89.81,16.52-26.38,18.29-59.11,12.07-90.47-8.71-43.92-38.93-76.27-43.06-116.49-3.68-35.89,6.61-66.23,30.16-83.73,24.34-18.09,71.35-21,109.39-4.22a464.64,464.64,0,0,1,87.22,50c27.41,20.16,60.14,36.8,92.19,39.18,32.65,2.43,63.87-8.09,95.6-18.4,29.29-9.52,57.5-19.36,87.09-23.36a231.25,231.25,0,0,1,111.86,12.9"/><path class="cls-19" d="M5.38,788.15c66.49-6.45,138.19-23.28,172.51-69.36C202.52,685.73,203.15,641,183.61,603c-15.59-30.3-41.16-56.47-51.34-85.42-12.66-36.38.7-74.13,29.61-105.21,31.53-33.9,80.52-53.42,104.78-89.57,18-26.8,20.24-60.46,14.39-92.67-7.57-41.63-33-74.54-37.29-113.4-3.6-34,4.54-64.42,27.67-82.62,23.59-18.56,68.18-21.94,105-8A382.44,382.44,0,0,1,464.49,73.9C490.85,93,521,110,552,113.9c32.61,4,64.59-5.3,95.83-15.61,29.42-9.7,57.44-20.67,87.38-25.68a234.59,234.59,0,0,1,115.3,10.23"/><path class="cls-20" d="M3.61,786.25c67.93-7.49,141.23-23.87,176.81-70.68,25.22-33.17,26.41-78.41,5.8-116.51-16.27-30.09-43.59-55.6-56-84.89-15.46-36.79-5.06-76.93,23.49-108,31.69-34.5,83.57-52.86,109.62-89.33,19.44-27.2,22.13-61.8,16.71-94.88-6.45-39.34-27.2-72.8-31.52-110.31C245,79.55,251,49.05,273.74,30.14s65-23,100.57-11.74c31.76,10,61.85,26.17,88.95,45.5,25.3,18.06,52.9,35.53,82.91,40.81,32.54,5.72,65.27-2.54,96.06-12.8,29.53-10,57.37-22,87.67-28,38.17-7.57,80.18-5.07,118.73,7.57"/><path class="cls-21" d="M1.84,784.35c69.37-8.53,144.19-24.53,181.11-72,25.75-33.33,27.56-79,5.88-117.26-17-29.9-46-54.73-60.6-84.37C110,473.54,117.37,431,145.6,399.93c31.81-35.14,86.61-52.3,114.46-89.09,20.9-27.6,23.95-63.13,19-97.08-5.37-37.07-21.38-71.07-25.74-107.23-3.59-30.18.42-60.76,22.7-80.38C298.15,6.68,337.74,2,372.21,10.65,404.83,18.84,435,35,462,53.9c24.24,17,49.22,34.94,78.27,41.62,32.43,7.45,66,.28,96.29-10,29.67-10.12,57.3-23.33,88-30.34,38.9-8.89,82.27-7.25,122.17,4.9"/><path class="cls-22" d="M.07,782.45c70.81-9.58,147.3-25.07,185.42-73.31,26.38-33.4,28.72-79.63,5.95-118-17.62-29.7-48.45-53.85-65.23-83.84-21-37.6-16.6-82.52,11.25-113.6,32-35.71,89.66-51.72,119.31-88.85,22.36-28,25.66-64.46,21.34-99.28s-15.55-69.33-20-104.15c-3.59-28.27-1.62-58.92,20.21-79.26C299.73,2.24,336.68-3.28,370.11,2.9s63.8,22.47,90.67,41c23.18,16,45.5,34.38,73.64,42.43,32.27,9.23,66.7,3.11,96.51-7.19s57.22-24.67,88.25-32.67C758.81,36.24,803.53,37,844.79,48.7"/></g></g></svg>